<svg width="24" height="19" viewBox="0 0 24 19" fill="none" xmlns="http://www.w3.org/2000/svg">
<path fill-rule="evenodd" clip-rule="evenodd" d="M23.1628 0C23.6252 0 24 0.364562 24 0.814281C24 1.264 23.6252 1.62857 23.1628 1.62857H0.837229C0.374849 1.62857 2.05993e-05 1.26401 2.05993e-05 0.814292C2.05993e-05 0.364574 0.374849 0 0.837229 0H23.1628ZM19.5349 9.5C19.5349 9.05028 19.16 8.68572 18.6977 8.68572H0.837209C0.374831 8.68572 0 9.05028 0 9.5C0 9.94971 0.374831 10.3143 0.837209 10.3143H18.6977C19.16 10.3143 19.5349 9.94971 19.5349 9.5ZM24 18.1857C24 17.736 23.6252 17.3715 23.1628 17.3715H0.837229C0.374849 17.3715 2.05993e-05 17.736 2.05993e-05 18.1857C2.05993e-05 18.6354 0.374849 19 0.837229 19H23.1628C23.6252 19 24 18.6354 24 18.1857Z" fill="white"/>
</svg>
