<svg width="18" height="18" viewBox="0 0 18 18" fill="none" xmlns="http://www.w3.org/2000/svg">
<path fill-rule="evenodd" clip-rule="evenodd" d="M13.3407 3.68545C13.5257 3.69753 13.7005 3.71326 13.8656 3.73376C14.6052 3.82562 15.2356 4.02151 15.7681 4.47397C16.3005 4.92643 16.5902 5.5124 16.7918 6.22037C16.9853 6.90035 17.1171 7.76916 17.2798 8.8421L17.6058 10.9914L17.6059 10.9921C17.8204 12.4058 17.9923 13.5393 17.9997 14.4359C18.0074 15.3631 17.8427 16.1597 17.2721 16.813C16.7014 17.4664 15.9271 17.7449 14.9962 17.8746C14.096 18 12.9337 18 11.4843 18H6.5156C5.06615 18 3.90392 18 3.00373 17.8746C2.07284 17.7449 1.29853 17.4664 0.727893 16.813C0.157253 16.1597 -0.00740526 15.3631 0.000252743 14.4359C0.00766274 13.5391 0.179653 12.4053 0.394143 10.9914L0.720133 8.8421L0.720188 8.84174C0.882892 7.76896 1.01464 6.90027 1.2082 6.22037C1.40975 5.5124 1.69943 4.92643 2.23188 4.47397C2.76432 4.02151 3.39471 3.82562 4.13439 3.73376C4.29948 3.71326 4.4743 3.69753 4.65921 3.68545C4.97439 1.59981 6.79777 0 8.99998 0C11.2022 0 13.0256 1.59981 13.3407 3.68545ZM6.82899 3.64557H6.8352H11.1646H11.1708C11.4334 3.64557 11.6839 3.64557 11.9229 3.64679C11.6105 2.33983 10.4204 1.36709 8.99998 1.36709C7.57956 1.36709 6.38947 2.33983 6.07708 3.64679C6.31606 3.64557 6.56656 3.64557 6.82899 3.64557ZM6.22796 7.15187C6.22796 7.65522 5.81427 8.06326 5.30397 8.06326C4.79366 8.06326 4.37998 7.65522 4.37998 7.15187C4.37998 6.64852 4.79366 6.24048 5.30397 6.24048C5.81427 6.24048 6.22796 6.64852 6.22796 7.15187ZM13.6199 7.15187C13.6199 7.65522 13.2062 8.06326 12.6959 8.06326C12.1856 8.06326 11.7719 7.65522 11.7719 7.15187C11.7719 6.64852 12.1856 6.24048 12.6959 6.24048C13.2062 6.24048 13.6199 6.64852 13.6199 7.15187ZM8.322 9.67797C8.322 9.30354 8.62554 9 8.99997 9C9.37441 9 9.67795 9.30354 9.67795 9.67797V11.322H11.3219C11.6965 11.322 12 11.6255 12 12C12 12.3744 11.6965 12.678 11.3219 12.678H9.67795V14.3219C9.67795 14.6965 9.37441 15 8.99997 15C8.62554 15 8.322 14.6965 8.322 14.3219V12.678H6.67797C6.30354 12.678 6 12.3744 6 12C6 11.6255 6.30354 11.322 6.67797 11.322H8.322V9.67797Z" fill="url(#paint0_linear_735_4815)"/>
<defs>
<linearGradient id="paint0_linear_735_4815" x1="9" y1="0" x2="9" y2="18" gradientUnits="userSpaceOnUse">
<stop stop-color="#9669F9"/>
<stop offset="1" stop-color="#7653E2"/>
</linearGradient>
</defs>
</svg>
