<svg width="18" height="18" viewBox="0 0 18 18" fill="none" xmlns="http://www.w3.org/2000/svg">
<path fill-rule="evenodd" clip-rule="evenodd" d="M7.1244 3.95799e-07H10.8756C11.9438 -1.46042e-05 12.8097 -2.7597e-05 13.5025 0.0856804C14.2243 0.17496 14.8411 0.36522 15.3687 0.80413C15.8963 1.24303 16.1957 1.81489 16.4149 2.50831C16.6253 3.17397 16.7829 4.02539 16.9773 5.0758L17.7109 9.0381C17.7865 9.4466 17.8416 9.744 17.8822 10H14.3663C14.0575 10 13.767 9.9999 13.5231 10.0273C13.2513 10.0578 12.9655 10.1282 12.6965 10.3166C12.4274 10.5051 12.2636 10.7496 12.142 10.9946C12.033 11.2145 11.9338 11.4874 11.8283 11.7776L11.7739 11.9272C11.6524 12.2613 11.5814 12.4534 11.5142 12.5888C11.4839 12.6498 11.4635 12.68 11.4526 12.694L11.4472 12.7005L11.444 12.7039L11.443 12.7048L11.4419 12.7054C11.4419 12.7054 11.4374 12.7075 11.4296 12.7101C11.4127 12.7156 11.3774 12.7245 11.3097 12.7321C11.1595 12.7489 10.9547 12.75 10.5991 12.75H7.40086C7.04533 12.75 6.8405 12.7489 6.69033 12.7321C6.62265 12.7245 6.58732 12.7156 6.57041 12.7101C6.56665 12.7089 6.56387 12.7078 6.5619 12.7071L6.55815 12.7054L6.557 12.7048L6.55599 12.7039C6.55599 12.7039 6.5525 12.7005 6.54743 12.694C6.53651 12.68 6.51606 12.6498 6.48579 12.5888C6.41864 12.4534 6.34761 12.2613 6.22611 11.9272L6.17178 11.7778C6.06628 11.4875 5.96705 11.2145 5.85796 10.9946C5.7364 10.7496 5.57255 10.5051 5.30354 10.3166C5.03454 10.1282 4.74875 10.0578 4.47691 10.0273C4.23296 9.9999 3.94248 10 3.63366 10H0.11784C0.15842 9.744 0.21347 9.4467 0.2891 9.0383L1.02269 5.07576C1.21714 4.02537 1.37475 3.17397 1.58514 2.50831C1.80432 1.81489 2.10368 1.24303 2.6313 0.80413C3.15892 0.36522 3.77572 0.17496 4.49746 0.0856804C5.19028 -2.7597e-05 6.05618 -1.46042e-05 7.1244 3.95799e-07ZM5.25 4.04114C5.25 3.62692 5.58579 3.29114 6 3.29114H12C12.4142 3.29114 12.75 3.62693 12.75 4.04114C12.75 4.45535 12.4142 4.79114 12 4.79114H6C5.58579 4.79114 5.25 4.45535 5.25 4.04114ZM6.25 7.04114C6.25 6.62692 6.58579 6.29114 7 6.29114H11C11.4142 6.29114 11.75 6.62693 11.75 7.04114C11.75 7.45535 11.4142 7.79114 11 7.79114H7C6.58579 7.79114 6.25 7.45535 6.25 7.04114ZM3.0155e-07 12.261V12.1862C3.0155e-07 11.9161 3.1048e-07 11.6937 0.00185031 11.5H3.59915C3.95467 11.5 4.1595 11.5011 4.30967 11.5179C4.37736 11.5255 4.41268 11.5345 4.4296 11.5399C4.43744 11.5425 4.44186 11.5446 4.44186 11.5446L4.443 11.5452L4.44401 11.5461C4.44401 11.5461 4.4475 11.5495 4.45257 11.556C4.4635 11.57 4.48394 11.6002 4.51421 11.6612C4.58136 11.7966 4.65239 11.9887 4.77389 12.3228L4.82822 12.4722C4.93372 12.7625 5.03296 13.0355 5.14204 13.2554C5.2636 13.5004 5.42745 13.745 5.69646 13.9334C5.96547 14.1218 6.25125 14.1922 6.52309 14.2227C6.76702 14.2501 7.05751 14.25 7.36631 14.25H10.6337C10.9425 14.25 11.233 14.2501 11.4769 14.2227C11.7487 14.1922 12.0345 14.1218 12.3035 13.9334C12.5726 13.745 12.7364 13.5004 12.858 13.2554C12.967 13.0355 13.0663 12.7625 13.1717 12.4723L13.2261 12.3228C13.3476 11.9887 13.4186 11.7966 13.4858 11.6612C13.5161 11.6002 13.5365 11.57 13.5474 11.556C13.5525 11.5495 13.556 11.5461 13.556 11.5461L13.557 11.5452L13.5581 11.5446L13.5631 11.5425L13.5704 11.5399C13.5873 11.5345 13.6226 11.5255 13.6903 11.5179C13.8405 11.5011 14.0453 11.5 14.4009 11.5H17.9982C18 11.6941 18 11.917 18 12.1879V12.2611C18 13.3058 18 14.1483 17.9247 14.8205C17.8469 15.5154 17.6814 16.1132 17.2907 16.6272C17.1005 16.8773 16.8773 17.1005 16.6272 17.2907C16.1132 17.6814 15.5154 17.8469 14.8205 17.9247C14.1483 18 13.3059 18 12.2612 18H5.73892C4.69418 18 3.85167 18 3.17954 17.9247C2.48463 17.8469 1.88678 17.6814 1.37281 17.2907C1.1227 17.1005 0.89951 16.8773 0.70934 16.6272C0.31856 16.1132 0.15308 15.5154 0.0752603 14.8205C-2.06605e-05 14.1483 -1.16985e-05 13.3058 3.0155e-07 12.261Z" fill="url(#paint0_linear_735_3038)"/>
<defs>
<linearGradient id="paint0_linear_735_3038" x1="9" y1="0" x2="9" y2="18" gradientUnits="userSpaceOnUse">
<stop stop-color="#9669F9"/>
<stop offset="1" stop-color="#7653E2"/>
</linearGradient>
</defs>
</svg>
