<svg width="30" height="24" viewBox="0 0 30 24" fill="none" xmlns="http://www.w3.org/2000/svg">
<path fill-rule="evenodd" clip-rule="evenodd" d="M11.2553 0.276973C10.5548 -0.00148605 9.79426 -0.000795901 8.83325 9.95114e-05L6.51502 0.000187354C5.26905 0.000157997 4.23006 0.000128713 3.40523 0.107446C2.53463 0.220723 1.74861 0.469898 1.11698 1.08117C0.485352 1.69243 0.227872 2.45312 0.110823 3.29564C-7.042e-05 4.09387 -3.77295e-05 5.09936 1.46677e-06 6.30514V14.501C-2.48346e-05 16.3363 -4.6037e-05 17.8158 0.161595 18.9792C0.329416 20.1873 0.68844 21.2044 1.52316 22.0122C2.35787 22.82 3.40886 23.1674 4.65711 23.3299C5.85939 23.4862 7.38804 23.4862 9.28457 23.4862H10.5375C11.5784 23.4862 12.4304 23.4862 13.1338 23.4231C13.8693 23.3572 14.5165 23.2176 15.1375 22.8985C15.7585 22.5794 16.2405 22.1387 16.709 21.5859C17.157 21.0573 17.6341 20.3745 18.2171 19.5398L25.4766 9.14921C25.5931 8.98273 25.6551 8.78639 25.6551 8.58542V8.46661C25.6554 7.62751 25.6556 7.05554 25.5512 6.55831C25.1358 4.57724 23.536 3.02894 21.4889 2.62695C20.9752 2.52604 20.3841 2.52619 19.5171 2.52641L14.7262 2.52643C14.43 2.52643 14.2645 2.52577 14.1404 2.51669C14.0851 2.51266 14.0548 2.5079 14.0394 2.5048C14.032 2.50334 14.0267 2.50184 14.0267 2.50184L14.0249 2.50127L14.0232 2.50047C14.0232 2.50047 14.0183 2.49789 14.012 2.49394C13.9987 2.48562 13.9738 2.46843 13.9315 2.43368C13.8366 2.3557 13.7185 2.24358 13.5078 2.04207L13.1791 1.72762C12.4962 1.07327 11.9558 0.555431 11.2553 0.276973Z" fill="#FFCD4C"/>
<rect x="2.18188" y="5.33789" width="21.8182" height="17.0809" rx="3" fill="white"/>
<path fill-rule="evenodd" clip-rule="evenodd" d="M29.6192 12.7691C29.8833 11.6839 29.9082 10.6352 29.2501 9.70826C28.5922 8.78133 27.5654 8.4185 26.4155 8.25573C25.305 8.09856 23.8466 8.09859 22.0608 8.09863H10.1397C9.31637 8.0986 8.61803 8.09859 8.04226 8.15704C7.42942 8.21927 6.86395 8.35448 6.33421 8.67973C5.80448 9.00498 5.43988 9.44081 5.12463 9.94839C4.82846 10.4253 4.53644 11.0334 4.19215 11.7503L2.84761 14.5498C2.05868 16.1924 1.4168 17.5289 1.08773 18.6086C0.748449 19.7219 0.661671 20.8112 1.31643 21.7911C1.9712 22.7711 3.03975 23.151 4.23659 23.3212C5.39741 23.4862 6.93223 23.4862 8.81866 23.4862H19.0315C20.361 23.4862 21.4439 23.4862 22.3246 23.3932C23.244 23.2961 24.0413 23.0899 24.7665 22.6169C25.4917 22.1438 25.9845 21.5085 26.4161 20.7244C26.8296 19.9733 27.2272 19.0077 27.7152 17.8223L28.1732 16.7096C28.8287 15.1173 29.3642 13.8168 29.6192 12.7691Z" fill="#F2B133"/>
</svg>
