<svg width="30" height="25" viewBox="0 0 30 25" fill="none" xmlns="http://www.w3.org/2000/svg">
<path fill-rule="evenodd" clip-rule="evenodd" d="M11.2553 0.891719C10.5548 0.61326 9.79426 0.61395 8.83325 0.614846L6.51502 0.614933C5.26905 0.614904 4.23006 0.614875 3.40523 0.722192C2.53463 0.835469 1.74861 1.08464 1.11698 1.69592C0.485352 2.30718 0.227872 3.06787 0.110823 3.91039C-7.042e-05 4.70861 -3.77295e-05 5.7141 1.46677e-06 6.91989V15.1157C-2.48346e-05 16.951 -4.6037e-05 18.4305 0.161595 19.594C0.329416 20.802 0.68844 21.8191 1.52316 22.6269C2.35787 23.4347 3.40886 23.7822 4.65711 23.9447C5.85939 24.101 7.38804 24.101 9.28457 24.101H10.5375C11.5784 24.101 12.4304 24.101 13.1338 24.0379C13.8693 23.972 14.5165 23.8324 15.1375 23.5132C15.7585 23.1941 16.2405 22.7535 16.709 22.2007C17.157 21.6721 17.6341 20.9892 18.2171 20.1546L25.4766 9.76395C25.5931 9.59748 25.6551 9.40114 25.6551 9.20017V9.08136C25.6554 8.24225 25.6556 7.67029 25.5512 7.17306C25.1358 5.19199 23.536 3.64369 21.4889 3.24169C20.9752 3.14079 20.3841 3.14094 19.5171 3.14116L14.7262 3.14117C14.43 3.14117 14.2645 3.14051 14.1404 3.13144C14.0851 3.1274 14.0548 3.12265 14.0394 3.11955C14.032 3.11808 14.0267 3.11659 14.0267 3.11659L14.0249 3.11601L14.0232 3.11522C14.0232 3.11522 14.0183 3.11264 14.012 3.10869C13.9987 3.10036 13.9738 3.08318 13.9315 3.04843C13.8366 2.97044 13.7185 2.85832 13.5078 2.65681L13.1791 2.34236C12.4962 1.68802 11.9558 1.17018 11.2553 0.891719Z" fill="#9669F9"/>
<rect x="2.18188" y="5.95264" width="21.8182" height="17.0809" rx="3" fill="white"/>
<path fill-rule="evenodd" clip-rule="evenodd" d="M29.6192 13.3839C29.8833 12.2986 29.9082 11.25 29.2501 10.323C28.5922 9.39607 27.5654 9.03324 26.4155 8.87047C25.305 8.71331 23.8466 8.71334 22.0608 8.71338H10.1397C9.31637 8.71335 8.61803 8.71334 8.04226 8.77179C7.42942 8.83402 6.86395 8.96923 6.33421 9.29448C5.80448 9.61972 5.43988 10.0556 5.12463 10.5631C4.82846 11.04 4.53644 11.6481 4.19215 12.365L2.84761 15.1645C2.05868 16.8071 1.4168 18.1436 1.08773 19.2234C0.748449 20.3367 0.661671 21.4259 1.31643 22.4059C1.9712 23.3859 3.03975 23.7658 4.23659 23.936C5.39741 24.1009 6.93223 24.1009 8.81866 24.1009H19.0315C20.361 24.1009 21.4439 24.1009 22.3246 24.008C23.244 23.9108 24.0413 23.7046 24.7665 23.2316C25.4917 22.7586 25.9845 22.1233 26.4161 21.3391C26.8296 20.5881 27.2272 19.6225 27.7152 18.437L28.1732 17.3243C28.8287 15.7321 29.3642 14.4316 29.6192 13.3839Z" fill="#6647D6"/>
</svg>
