<svg width="18" height="18" viewBox="0 0 18 18" fill="none" xmlns="http://www.w3.org/2000/svg">
<path fill-rule="evenodd" clip-rule="evenodd" d="M9.8166 1.57505C9.2773 1.46954 8.72266 1.46954 8.18336 1.57505C7.45272 1.71799 6.7564 2.13595 5.04301 3.19793C3.50029 4.15412 2.88402 4.54739 2.4547 5.07265C2.13752 5.46071 1.89175 5.90182 1.72879 6.37551C1.50823 7.01667 1.49861 7.74673 1.49861 9.5594V14.1145C1.49861 15.4342 2.57036 16.5041 3.89244 16.5041C4.78054 16.5041 5.50048 15.7854 5.50048 14.8989V12.6765C5.50048 10.7472 7.06727 9.1832 9 9.1832C10.9327 9.1832 12.4995 10.7472 12.4995 12.6765V14.8989C12.4995 15.7854 13.2195 16.5041 14.1076 16.5041C15.4296 16.5041 16.5014 15.4342 16.5014 14.1145V9.5594C16.5014 7.74673 16.4918 7.01667 16.2712 6.37551C16.1083 5.90182 15.8625 5.46071 15.5453 5.07265C15.116 4.54739 14.4997 4.15412 12.957 3.19793C11.2436 2.13595 10.5473 1.71799 9.8166 1.57505ZM7.89514 0.10706C8.62477 -0.0356867 9.3752 -0.0356867 10.1049 0.10706C11.1383 0.30925 12.0796 0.89291 13.6098 1.84167C13.6551 1.86981 13.7011 1.89828 13.7475 1.92706C13.789 1.95279 13.8301 1.97822 13.8706 2.00337C15.2503 2.85819 16.0994 3.38429 16.7064 4.12696C17.1356 4.65199 17.4681 5.24879 17.6885 5.88967C18.0004 6.79621 18.0002 7.79381 18 9.4148C18 9.4624 18 9.5107 18 9.5594V14.1145C18 16.2604 16.2573 18 14.1076 18C12.3918 18 11.0009 16.6116 11.0009 14.8989V12.6765C11.0009 11.5734 10.1051 10.6791 9 10.6791C7.89491 10.6791 6.99907 11.5734 6.99907 12.6765V14.8989C6.99907 16.6116 5.60818 18 3.89244 18C1.74272 18 2.55394e-05 16.2604 2.55394e-05 14.1145V9.5594C2.55394e-05 9.5107 1.55258e-05 9.4624 1.55258e-05 9.4147C-0.000253474 7.79381 -0.000415504 6.79621 0.311446 5.88967C0.531915 5.24879 0.864426 4.65199 1.29356 4.12696C1.90059 3.38429 2.7497 2.85819 4.12937 2.00337C4.16995 1.97822 4.211 1.95279 4.25251 1.92706C4.29895 1.89828 4.34486 1.86981 4.39024 1.84167C5.92036 0.89291 6.86166 0.30925 7.89514 0.10706Z" fill="#6C6C6C"/>
</svg>
