<svg width="18" height="18" viewBox="0 0 18 18" fill="none" xmlns="http://www.w3.org/2000/svg">
<path fill-rule="evenodd" clip-rule="evenodd" d="M10.1049 0.10706C9.3752 -0.0356867 8.62477 -0.0356867 7.89514 0.10706C6.86166 0.30925 5.92036 0.89291 4.39024 1.84167L4.12937 2.00337C2.7497 2.85819 1.90059 3.38429 1.29356 4.12696C0.864426 4.65199 0.531916 5.24879 0.311446 5.88967C-0.000415504 6.79621 -0.000253474 7.79381 1.55258e-05 9.4147L2.55394e-05 14.1145C2.55394e-05 16.2604 1.74272 18 3.89244 18C5.60818 18 6.99907 16.6116 6.99907 14.8989V12.6765C6.99907 11.5734 7.89491 10.6791 9 10.6791C10.1051 10.6791 11.0009 11.5734 11.0009 12.6765V14.8989C11.0009 16.6116 12.3918 18 14.1076 18C16.2573 18 18 16.2604 18 14.1145V9.4148C18.0002 7.79381 18.0004 6.79621 17.6885 5.88967C17.4681 5.24879 17.1356 4.65199 16.7064 4.12696C16.0994 3.38429 15.2503 2.85819 13.8706 2.00336L13.6098 1.84167C12.0796 0.89291 11.1383 0.30925 10.1049 0.10706Z" fill="url(#paint0_linear_735_3040)"/>
<defs>
<linearGradient id="paint0_linear_735_3040" x1="9" y1="0" x2="9" y2="18" gradientUnits="userSpaceOnUse">
<stop stop-color="#9669F9"/>
<stop offset="1" stop-color="#7653E2"/>
</linearGradient>
</defs>
</svg>
