<svg width="19" height="19" viewBox="0 0 19 19" fill="none" xmlns="http://www.w3.org/2000/svg">
<path fill-rule="evenodd" clip-rule="evenodd" d="M17.4628 12.0674C16.7975 11.4029 15.7187 11.4028 15.0534 12.0674L12.0441 15.073C11.7064 15.4103 11.526 15.8735 11.5467 16.35L11.5894 17.3298C11.6278 18.2114 12.3347 18.9174 13.2175 18.9557L14.1983 18.9984C14.6754 19.0191 15.1393 18.8389 15.477 18.5017L18.4863 15.4961C19.1516 14.8315 19.1516 13.7542 18.4863 13.0896L17.4628 12.0674ZM16.086 13.0987C16.181 13.0038 16.3351 13.0038 16.4301 13.0987L17.4537 14.121C17.5487 14.2159 17.5487 14.3698 17.4537 14.4647L14.4444 17.4703C14.3962 17.5185 14.3299 17.5443 14.2617 17.5413L13.2809 17.4987C13.1548 17.4932 13.0537 17.3924 13.0483 17.2663L13.0056 16.2867C13.0027 16.2186 13.0285 16.1524 13.0768 16.1043L16.086 13.0987ZM6.42134 0.790695C6.42134 0.354001 6.0669 0 5.62967 0C5.19245 0 4.838 0.354001 4.838 0.790695V1.09879C3.94758 1.21082 3.19648 1.42453 2.53022 1.8553C1.87373 2.27974 1.31462 2.83816 0.889654 3.49385C0.411625 4.23138 0.200556 5.07302 0.0991907 6.09283C-1.46851e-05 7.09097 -8.28915e-06 8.34133 1.55293e-07 9.92876V10.015C-8.28915e-06 11.6023 -1.46851e-05 12.8527 0.0991907 13.8509C0.200556 14.8706 0.411625 15.7123 0.889654 16.4499C1.31462 17.1055 1.87373 17.664 2.53022 18.0884C3.26867 18.5658 4.11133 18.7766 5.13241 18.8779C6.13176 18.977 7.38365 18.977 8.97299 18.977H9.5C9.93721 18.977 10.2917 18.6229 10.2917 18.1863C10.2917 17.7496 9.93721 17.3955 9.5 17.3955H9.01621C7.37423 17.3955 6.20085 17.3947 5.28882 17.3042C4.38946 17.215 3.83017 17.0451 3.39064 16.7608C2.92171 16.4577 2.52235 16.0588 2.2188 15.5905C1.93426 15.1515 1.76406 14.5929 1.67478 13.6947C1.58424 12.7837 1.58333 11.6118 1.58333 9.97182C1.58333 9.19661 1.58353 8.52597 1.59332 7.93804C1.93974 7.89681 2.42014 7.84584 3.03449 7.79471C4.46409 7.67573 6.61924 7.55584 9.5 7.55584C12.3807 7.55584 14.536 7.67573 15.9655 7.79471C16.5849 7.84626 17.0681 7.89766 17.4152 7.93906C17.4167 8.23485 17.4167 8.55763 17.4167 8.91201V10.3273C17.4167 10.764 17.7711 11.118 18.2083 11.118C18.6455 11.118 19 10.764 19 10.3273V8.88238C19 8.86513 19 8.84793 19 8.83079C19 8.81155 19 8.79238 19 8.77328C19 7.72669 18.9984 6.89572 18.9514 6.21952C18.9019 5.50645 18.7993 4.90697 18.5646 4.35107C18.003 3.0209 16.9434 1.96251 15.6115 1.40161C15.1679 1.21478 14.6965 1.11172 14.162 1.05255V0.790695C14.162 0.354001 13.8075 0 13.3703 0C12.9331 0 12.5786 0.354001 12.5786 0.790695V0.973095C12.1316 0.96674 11.6332 0.96674 11.0746 0.96674H8.97305C8.00327 0.96674 7.15914 0.96674 6.42134 0.989245V0.790695ZM12.5786 2.7235V2.55464C12.1412 2.54825 11.6372 2.54813 11.0449 2.54813H9.01621C7.98288 2.54813 7.13514 2.54849 6.42134 2.57129V2.7235C6.42134 3.16018 6.0669 3.51418 5.62967 3.51418C5.19245 3.51418 4.838 3.16018 4.838 2.7235V2.6952C4.19341 2.79303 3.75162 2.94941 3.39064 3.18281C2.92171 3.48599 2.52235 3.88486 2.2188 4.3532C1.93426 4.7922 1.76406 5.35081 1.67478 6.24904C1.67186 6.27837 1.66904 6.30796 1.66631 6.33783C1.99697 6.30109 2.40921 6.25989 2.903 6.21879C4.37619 6.09617 6.5752 5.97446 9.5 5.97446C12.4248 5.97446 14.6238 6.09617 16.097 6.21879C16.6104 6.26153 17.0357 6.30437 17.3729 6.3422L17.3719 6.32888C17.3281 5.6977 17.2442 5.29357 17.1057 4.96551C16.7045 4.01538 15.9477 3.25938 14.9963 2.85875C14.7705 2.76366 14.5088 2.69433 14.162 2.64606V2.7235C14.162 3.16018 13.8075 3.51418 13.3703 3.51418C12.9331 3.51418 12.5786 3.16018 12.5786 2.7235Z" fill="white"/>
</svg>
