<svg width="23" height="23" viewBox="0 0 23 23" fill="none" xmlns="http://www.w3.org/2000/svg">
<path fill-rule="evenodd" clip-rule="evenodd" d="M18.0895 1.97415C18.1051 1.98814 18.1208 2.00218 18.1365 2.01627L19.2819 3.04207C19.2976 3.05617 19.3134 3.07021 19.3289 3.0842C19.9625 3.65156 20.5085 4.1404 20.8927 4.59037C21.3045 5.07262 21.6257 5.61613 21.6622 6.3048C21.6986 6.99347 21.4365 7.56755 21.0778 8.09016C20.7432 8.5778 20.2519 9.121 19.6817 9.75143L9.91807 20.5477C9.8868 20.5822 9.85593 20.6164 9.82543 20.6502C9.28785 21.2457 8.86265 21.7166 8.29924 22.0107C7.73583 22.3048 7.10475 22.385 6.30684 22.4866C6.26157 22.4923 6.21575 22.4982 6.16938 22.5041L3.92655 22.7915C3.29259 22.8727 2.71934 22.9462 2.2522 22.9405C1.7427 22.9342 1.18797 22.8352 0.722365 22.4182C0.256756 22.0013 0.0995633 21.4627 0.039776 20.9591C-0.0150534 20.4975 -0.00180029 19.9223 0.012866 19.2865L0.0644755 17.0367C0.0655488 16.9902 0.0665584 16.9442 0.0675678 16.8989C0.0852267 16.0986 0.0992055 15.4656 0.333882 14.8772C0.568572 14.2886 0.994583 13.8184 1.5332 13.2239C1.56377 13.1901 1.59469 13.156 1.62596 13.1214L11.3473 2.37203C11.3614 2.35637 11.3756 2.34077 11.3896 2.3252C11.9597 1.69471 12.4509 1.15147 12.9031 0.7691C13.3878 0.359304 13.9339 0.0396292 14.626 0.00336583C15.318 -0.0328911 15.8949 0.227935 16.4201 0.584818C16.9101 0.91782 17.456 1.40672 18.0895 1.97415ZM15.3356 2.16508C14.9882 1.92894 14.8304 1.90889 14.727 1.91431C14.6237 1.91973 14.469 1.95614 14.1483 2.2273C13.8064 2.51642 13.4012 2.96148 12.7766 3.65211L3.05531 14.4016C2.37982 15.1484 2.21252 15.354 2.12121 15.583C2.0299 15.812 2.00997 16.0759 1.98692 17.0804L1.93674 19.2676C1.92024 19.9865 1.9125 20.4235 1.94943 20.7345C1.96651 20.8785 1.98901 20.9498 2.00226 20.9812C2.00525 20.9883 2.00757 20.9929 2.00901 20.9956C2.01178 20.9967 2.0166 20.9985 2.024 21.0007C2.05684 21.0105 2.13045 21.0253 2.27607 21.0271C2.59073 21.0309 3.02672 20.9774 3.74339 20.8855L5.92384 20.6062C6.92535 20.4779 7.18691 20.4304 7.40611 20.316C7.62533 20.2017 7.81325 20.0145 8.48874 19.2676L18.21 8.51816C18.8346 7.82753 19.2368 7.37975 19.4898 7.01102C19.7271 6.66523 19.7473 6.50829 19.7419 6.40543C19.7364 6.30257 19.6999 6.14859 19.4273 5.82951C19.1368 5.48926 18.6895 5.08599 17.9956 4.46446L16.8502 3.43866C16.1561 2.81713 15.7062 2.41688 15.3356 2.16508ZM12.1034 22.0432C12.1034 21.5148 12.5338 21.0864 13.0648 21.0864H22.0385C22.5695 21.0864 23 21.5148 23 22.0432C23 22.5717 22.5695 23 22.0385 23H13.0648C12.5338 23 12.1034 22.5717 12.1034 22.0432Z" fill="#6647D6"/>
</svg>
