<svg width="16" height="20" viewBox="0 0 16 20" fill="none" xmlns="http://www.w3.org/2000/svg">
<path fill-rule="evenodd" clip-rule="evenodd" d="M7.99995 0C5.49571 0 3.29115 1.83478 3.29115 4.3038C3.29115 6.77281 5.49571 8.60759 7.99995 8.60759C10.5042 8.60759 12.7087 6.77281 12.7087 4.3038C12.7087 1.83478 10.5042 0 7.99995 0ZM11.9313 10.5926C9.04116 9.26926 5.67503 9.47457 2.93265 11.2085C1.11054 12.3606 7.2685e-06 14.4102 7.2685e-06 16.618V17.1318C-5.27315e-05 17.3339 -9.27644e-05 17.4949 0.0152572 17.6397C0.145957 18.8728 1.08748 19.8486 2.28242 19.9842C2.42181 20 2.57657 20 2.76998 20H2.77005H2.77366H6.9353L6.87109 19.9917L7 19C6.87109 19.9917 6.87061 19.9917 6.86938 19.9915L6.86743 19.9912L6.86279 19.9905L6.85156 19.989L6.82056 19.9841L6.76855 19.9756L6.72534 19.9675C6.64844 19.9526 6.54468 19.9299 6.42236 19.8965C6.18164 19.8301 5.84961 19.7161 5.50806 19.5232C4.80957 19.1284 4 18.3459 4 17C4 15.6528 4.81104 14.8723 5.51172 14.4805C5.854 14.2891 6.18652 14.1768 6.42725 14.1118C6.5498 14.0789 6.65381 14.0566 6.73071 14.0422C6.76929 14.0352 6.80127 14.0298 6.82593 14.0261L6.85718 14.0215L6.86841 14.02L6.8728 14.0193L6.87476 14.019C6.87622 14.019 6.87646 14.0188 7 15.0112L6.87646 14.0188L6.93799 14.0112H7H10.4404L11.3098 12L11.3208 12.0049L11.9313 10.5926ZM13.5041 11.512L12.8662 12.9622L12.8733 12.9685L10.5923 18.1536L10.4604 18.4534L9.79909 20H13.2263H13.2299H13.23C13.4235 20 13.5782 20 13.7176 19.9842C14.9125 19.8486 15.854 18.8728 15.9847 17.6397C16 17.4958 16 17.336 16 17.1358V17.1319V16.618C16 14.5926 15.0654 12.7003 13.5041 11.512ZM9.57593 16.0112H7.08252C7.06592 16.0144 7.04565 16.0186 7.02246 16.0239L6.94775 16.043C6.88037 16.061 6.80469 16.0847 6.72607 16.1152C6.64795 16.1453 6.56689 16.1819 6.48828 16.2258C6.18896 16.3933 6 16.6074 6 17C6 17.394 6.19043 17.6116 6.49194 17.7817C6.65039 17.8713 6.81836 17.9312 6.95264 17.968C7.00732 17.9832 7.05322 17.9934 7.08569 18H8.71631L9.44067 16.3242L9.57593 16.0112Z" fill="url(#paint0_linear_735_4811)"/>
<defs>
<linearGradient id="paint0_linear_735_4811" x1="8" y1="0" x2="8" y2="20" gradientUnits="userSpaceOnUse">
<stop stop-color="#9669F9"/>
<stop offset="1" stop-color="#7653E2"/>
</linearGradient>
</defs>
</svg>
