<svg width="18" height="17" viewBox="0 0 18 17" fill="none" xmlns="http://www.w3.org/2000/svg">
<path fill-rule="evenodd" clip-rule="evenodd" d="M4.58337 0.12464V1.28577C4.58337 1.69796 4.91916 2.03211 5.33337 2.03211C5.74758 2.03211 6.08337 1.69796 6.08337 1.28577V0.02124C6.78233 -1.00043e-05 7.58204 0 8.50077 0H9.4992C10.418 0 11.2177 -1.00043e-05 11.9166 0.02124V1.28577C11.9166 1.69796 12.2524 2.03211 12.6666 2.03211C13.0808 2.03211 13.4166 1.69796 13.4166 1.28577V0.12464C14.2602 0.23038 14.9718 0.43211 15.6029 0.83872C16.2249 1.23936 16.7546 1.76646 17.1572 2.38536C17.549 2.98776 17.7515 3.66373 17.8612 4.45859C17.3921 4.42132 16.8004 4.37786 16.1099 4.33441C14.2863 4.21969 11.7699 4.10488 9 4.10488C6.2302 4.10488 3.71382 4.21969 1.89023 4.33441C1.19965 4.37786 0.60792 4.42132 0.13879 4.4586C0.24845 3.66374 0.45095 2.98776 0.84283 2.38536C1.24543 1.76646 1.77511 1.23936 2.39705 0.83872C3.02824 0.43211 3.73981 0.23038 4.58337 0.12464ZM0.0241802 5.96545C-8.801e-06 6.68173 -4.85689e-06 7.50615 1.43111e-07 8.4593V8.5407C-6.85689e-06 10.0391 -1.29193e-05 11.2193 0.0939701 12.1614C0.19 13.1241 0.38996 13.9185 0.84283 14.6146C1.24543 15.2335 1.77511 15.7606 2.39705 16.1613C3.09663 16.6119 3.89494 16.8109 4.86228 16.9065C5.80904 17 6.99504 17 8.50073 17H9.4993C11.005 17 12.191 17 13.1377 16.9065C14.1051 16.8109 14.9034 16.6119 15.6029 16.1613C16.2249 15.7606 16.7546 15.2335 17.1572 14.6146C17.61 13.9185 17.81 13.1241 17.906 12.1614C18 11.2193 18 10.039 18 8.5407V8.45935C18 7.50617 18 6.68174 17.9758 5.96544C17.4842 5.92507 16.8177 5.87461 16.0152 5.82412C14.2138 5.7108 11.7302 5.59756 9 5.59756C6.2699 5.59756 3.78627 5.7108 1.98487 5.82412C1.18229 5.87461 0.51584 5.92508 0.0241802 5.96545ZM6.24995 9.0347C6.24995 9.5385 5.83955 9.9469 5.33329 9.9469C4.82703 9.9469 4.41662 9.5385 4.41662 9.0347C4.41662 8.5309 4.82703 8.12254 5.33329 8.12254C5.83955 8.12254 6.24995 8.5309 6.24995 9.0347ZM6.24995 12.6834C6.24995 13.1871 5.83955 13.5955 5.33329 13.5955C4.82703 13.5955 4.41662 13.1871 4.41662 12.6834C4.41662 12.1796 4.82703 11.7712 5.33329 11.7712C5.83955 11.7712 6.24995 12.1796 6.24995 12.6834ZM12.6667 9.9469C13.1729 9.9469 13.5833 9.5385 13.5833 9.0347C13.5833 8.5309 13.1729 8.12254 12.6667 8.12254C12.1604 8.12254 11.75 8.5309 11.75 9.0347C11.75 9.5385 12.1604 9.9469 12.6667 9.9469ZM13.5833 12.6834C13.5833 13.1871 13.1729 13.5955 12.6667 13.5955C12.1604 13.5955 11.75 13.1871 11.75 12.6834C11.75 12.1796 12.1604 11.7712 12.6667 11.7712C13.1729 11.7712 13.5833 12.1796 13.5833 12.6834ZM9 9.9469C9.5063 9.9469 9.9167 9.5385 9.9167 9.0347C9.9167 8.5309 9.5063 8.12254 9 8.12254C8.49377 8.12254 8.08337 8.5309 8.08337 9.0347C8.08337 9.5385 8.49377 9.9469 9 9.9469ZM9.9167 12.6834C9.9167 13.1871 9.5063 13.5955 9 13.5955C8.49377 13.5955 8.08337 13.1871 8.08337 12.6834C8.08337 12.1796 8.49377 11.7712 9 11.7712C9.5063 11.7712 9.9167 12.1796 9.9167 12.6834Z" fill="url(#paint0_linear_735_3036)"/>
<defs>
<linearGradient id="paint0_linear_735_3036" x1="9" y1="0" x2="9" y2="17" gradientUnits="userSpaceOnUse">
<stop stop-color="#9669F9"/>
<stop offset="1" stop-color="#7653E2"/>
</linearGradient>
</defs>
</svg>
