<svg width="18" height="18" viewBox="0 0 18 18" fill="none" xmlns="http://www.w3.org/2000/svg">
<path fill-rule="evenodd" clip-rule="evenodd" d="M5.33329 10.5469C5.83955 10.5469 6.24996 10.1365 6.24996 9.63034C6.24996 9.12404 5.83955 8.71362 5.33329 8.71362C4.82703 8.71362 4.41663 9.12404 4.41663 9.63034C4.41663 10.1365 4.82703 10.5469 5.33329 10.5469ZM5.33329 14.2134C5.83955 14.2134 6.24996 13.803 6.24996 13.2968C6.24996 12.7905 5.83955 12.3801 5.33329 12.3801C4.82703 12.3801 4.41663 12.7905 4.41663 13.2968C4.41663 13.803 4.82703 14.2134 5.33329 14.2134ZM13.5833 9.63034C13.5833 10.1365 13.1729 10.5469 12.6667 10.5469C12.1604 10.5469 11.75 10.1365 11.75 9.63034C11.75 9.12404 12.1604 8.71362 12.6667 8.71362C13.1729 8.71362 13.5833 9.12404 13.5833 9.63034ZM12.6667 14.2134C13.1729 14.2134 13.5833 13.803 13.5833 13.2968C13.5833 12.7905 13.1729 12.3801 12.6667 12.3801C12.1604 12.3801 11.75 12.7905 11.75 13.2968C11.75 13.803 12.1604 14.2134 12.6667 14.2134ZM9.9167 9.63034C9.9167 10.1365 9.5063 10.5469 9 10.5469C8.49378 10.5469 8.08337 10.1365 8.08337 9.63034C8.08337 9.12404 8.49378 8.71362 9 8.71362C9.5063 8.71362 9.9167 9.12404 9.9167 9.63034ZM9 14.2134C9.5063 14.2134 9.9167 13.803 9.9167 13.2968C9.9167 12.7905 9.5063 12.3801 9 12.3801C8.49378 12.3801 8.08337 12.7905 8.08337 13.2968C8.08337 13.803 8.49378 14.2134 9 14.2134ZM5.33337 0C5.74759 0 6.08337 0.335788 6.08337 0.749998V0.938088C6.78234 0.916738 7.58204 0.916748 8.50078 0.916748H9.4992C10.418 0.916748 11.2177 0.916738 11.9166 0.938088V0.749998C11.9166 0.335788 12.2524 0 12.6666 0C13.0808 0 13.4166 0.335788 13.4166 0.749998V1.042C14.2602 1.14826 14.9718 1.35098 15.6029 1.75958C16.2249 2.16218 16.7546 2.69186 17.1572 3.3138C17.61 4.01338 17.81 4.81169 17.906 5.77903C18 6.72581 18 7.91184 18 9.41754V9.49924C18 11.005 18 12.191 17.906 13.1378C17.81 14.1051 17.61 14.9034 17.1572 15.603C16.7546 16.2249 16.2249 16.7546 15.6029 17.1572C14.9034 17.6101 14.1051 17.81 13.1377 17.9061C12.191 18.0001 11.005 18 9.4993 18H8.50073C6.99504 18 5.80904 18.0001 4.86228 17.9061C3.89494 17.81 3.09663 17.6101 2.39705 17.1572C1.77511 16.7546 1.24543 16.2249 0.84283 15.603C0.38996 14.9034 0.19 14.1051 0.0939701 13.1378C-1.29417e-05 12.191 -6.87939e-06 11.005 1.20611e-07 9.49934V9.41754C-6.87939e-06 7.91181 -1.29417e-05 6.7258 0.0939701 5.77903C0.19 4.81169 0.38996 4.01338 0.84283 3.3138C1.24543 2.69186 1.77511 2.16218 2.39705 1.75958C3.02824 1.35098 3.73981 1.14826 4.58337 1.042V0.749998C4.58337 0.335788 4.91916 0 5.33337 0ZM11.9166 2.43872V2.58334C11.9166 2.99755 12.2524 3.33334 12.6666 3.33334C13.0808 3.33334 13.4166 2.99755 13.4166 2.58334V2.55625C14.0273 2.64905 14.4458 2.79738 14.7878 3.01877C15.2321 3.30634 15.6104 3.68469 15.898 4.12893C16.1042 4.44754 16.2471 4.83258 16.3407 5.37754C16.0419 5.345 15.6782 5.30921 15.2498 5.27351C13.8541 5.1572 11.7709 5.04175 9 5.04175C6.22914 5.04175 4.14586 5.1572 2.75021 5.27351C2.32176 5.30921 1.95813 5.34499 1.65932 5.37754C1.75292 4.83258 1.89577 4.44754 2.10202 4.12893C2.38959 3.68469 2.76794 3.30634 3.21218 3.01877C3.55417 2.79738 3.9727 2.64905 4.58337 2.55625V2.58334C4.58337 2.99755 4.91916 3.33334 5.33337 3.33334C5.74759 3.33334 6.08337 2.99755 6.08337 2.58334V2.43872C6.75961 2.41709 7.56273 2.41675 8.54167 2.41675H9.4583C10.4373 2.41675 11.2404 2.41709 11.9166 2.43872ZM16.4747 6.9024C16.1478 6.86363 15.6979 6.81605 15.1252 6.76833C13.7709 6.65546 11.7291 6.54175 9 6.54175C6.27086 6.54175 4.22914 6.65546 2.87478 6.76833C2.30206 6.81605 1.85222 6.86363 1.52528 6.9024C1.50038 7.5987 1.5 8.43189 1.5 9.45844C1.5 11.0139 1.50086 12.1256 1.58663 12.9896C1.67121 13.8416 1.83246 14.3715 2.10202 14.7879C2.38959 15.2321 2.76794 15.6104 3.21218 15.898C3.62858 16.1676 4.15844 16.3288 5.01046 16.4134C5.87449 16.4992 6.98611 16.5 8.54167 16.5H9.4583C11.0139 16.5 12.1255 16.4992 12.9895 16.4134C13.8416 16.3288 14.3714 16.1676 14.7878 15.898C15.2321 15.6104 15.6104 15.2321 15.898 14.7879C16.1675 14.3715 16.3288 13.8416 16.4134 12.9896C16.4991 12.1256 16.5 11.0139 16.5 9.45844C16.5 8.43189 16.4996 7.5987 16.4747 6.9024Z" fill="#6C6C6C"/>
</svg>
