<svg width="276" height="54" viewBox="0 0 276 54" fill="none" xmlns="http://www.w3.org/2000/svg">
<path d="M251.646 35.3765C251.646 33.372 251.552 31.7613 253.557 31.7613H268.018C266.837 29.1125 264.474 27.4659 261.253 27.4659C257.351 27.4659 253.95 30.9738 253.95 35.3765C253.95 36.7367 254.201 37.9538 254.631 38.956C255.06 39.9941 255.669 40.8531 256.456 41.4974C256.993 41.9628 257.601 42.3565 258.353 42.6429C259.32 43.0366 260.501 43.2872 261.968 43.2872C262.899 43.2872 263.901 43.0724 264.868 42.7145C265.834 42.3207 266.765 41.7838 267.445 41.1395C268.089 40.5668 268.948 40.2088 269.879 40.2088C271.884 40.2088 273.494 41.8554 273.494 43.8599C273.494 44.9337 273.029 45.8644 272.313 46.5445C272.277 46.5803 272.242 46.6161 272.206 46.6161C272.206 46.6519 272.17 46.6519 272.17 46.6519C270.774 47.8689 269.199 48.7996 267.517 49.4797C265.763 50.1598 263.866 50.5535 261.968 50.5535C260.036 50.5535 258.21 50.2672 256.528 49.6944C254.881 49.1575 253.342 48.3342 252.053 47.2604C251.194 46.5803 250.407 45.7928 249.762 44.8979C248.868 43.7525 248.187 42.4639 247.686 41.1037C247.006 39.314 246.684 37.381 246.684 35.3765C246.684 27.0364 253.306 20.2354 261.253 20.2354C269.879 20.2354 276 26.929 276 35.3765C276 37.381 274.353 38.9918 272.349 38.9918H253.557C251.552 38.9918 251.646 37.381 251.646 35.3765Z" fill="url(#paint0_linear_796_3052)"/>
<path d="M231.836 31.0454C234.234 31.8687 244.722 32.8352 244.722 41.1753C244.722 46.2582 240.749 50.4462 233.983 50.4462C230.046 50.4462 226.896 49.265 223.71 47.2605C222.493 46.6877 221.67 45.4349 221.67 44.0031C221.67 41.9986 223.281 40.3521 225.285 40.3521C226.037 40.3521 226.717 40.6026 227.29 40.9606V40.9248C229.33 42.2492 231.263 43.1798 233.983 43.1798C235.558 43.1798 237.455 42.7861 237.455 41.1753C237.455 40.9964 237.455 40.9248 237.42 40.8532C237.026 39.7436 233.339 38.8845 232.194 38.6339C226.968 37.4527 222.529 34.8755 222.529 29.5778C222.529 29.542 222.529 29.542 222.529 29.542C222.529 29.5062 222.529 29.5062 222.529 29.4705C222.529 21.5598 230.583 18.5888 238.1 21.2019C239.317 21.6314 240.462 22.1683 241.536 22.7052C242.681 23.3138 243.469 24.5308 243.469 25.9268C243.469 27.9313 241.858 29.542 239.854 29.542C239.746 29.542 239.639 29.542 239.567 29.542C239.102 29.5062 238.672 29.3631 238.279 29.1841C236.883 28.6114 235.415 27.5375 232.838 27.5375C229.939 27.5375 229.795 28.5398 229.795 29.542C229.795 29.6852 229.795 29.7568 229.831 29.7926C230.046 30.3295 231.299 30.8307 231.836 31.0454Z" fill="url(#paint1_linear_796_3052)"/>
<path d="M219.616 21.9535C221.012 22.4546 222.014 23.779 222.014 25.354C222.014 27.3585 220.403 29.005 218.399 29.005C217.969 29.005 217.539 28.9334 217.146 28.7903C215.32 28.146 212.922 27.5374 211.061 28.1102C208.233 28.9692 207.732 32.6919 207.732 33.6584V46.2223C207.732 46.2581 207.732 46.2581 207.732 46.2581C207.732 48.2626 206.085 49.8734 204.081 49.8734C202.076 49.8734 200.465 48.2626 200.465 46.2581C200.465 46.2581 200.465 46.2581 200.465 46.2223V33.6941V33.6584V24.2443C200.465 22.2398 202.076 20.5933 204.081 20.5933C205.262 20.5933 206.3 21.1302 206.944 21.9893C209.987 20.3785 214.139 20.0205 219.472 21.9177C219.508 21.9177 219.58 21.9177 219.616 21.9535Z" fill="url(#paint2_linear_796_3052)"/>
<path d="M198.514 37.1303V46.5443C198.514 48.5488 196.903 50.1596 194.898 50.1596C193.574 50.1596 192.428 49.4795 191.784 48.4056C183.014 53.2737 172.025 47.117 172.025 37.1303C172.025 37.0229 172.025 36.9513 172.025 36.8439V24.4231C172.025 24.3157 172.025 24.2441 172.025 24.1368C172.025 24.0652 172.025 23.9578 172.025 23.8862V23.8504C172.204 21.9891 173.744 20.5215 175.641 20.5215C177.574 20.5215 179.113 21.9891 179.256 23.8504H179.292V37.1303C179.292 37.703 179.363 38.2757 179.542 38.8126C181.547 45.1125 191.283 43.5733 191.283 37.1303V24.1726C191.283 24.1726 191.283 24.1726 191.283 24.1368C191.283 22.1322 192.894 20.5215 194.898 20.5215C196.903 20.5215 198.514 22.1322 198.514 24.1368C198.514 24.1726 198.514 24.1726 198.514 24.1726V37.1303Z" fill="url(#paint3_linear_796_3052)"/>
<path d="M170.041 46.1863C170.041 46.2221 170.041 46.2936 170.041 46.3294C169.969 48.2624 168.358 49.8015 166.426 49.8015C165.28 49.8015 164.314 49.3004 163.634 48.5129L143.266 24.4946V46.1863C143.266 48.1908 141.62 49.8015 139.615 49.8015C137.611 49.8015 136 48.1908 136 46.1863V14.6153C136 14.5795 136 14.5437 136 14.4721C136 14.4363 136 14.4005 136 14.3647C136.036 14.2931 136.036 14.2573 136.036 14.1857C136.036 14.1141 136.036 14.0784 136.072 14.0068C136.072 13.9352 136.072 13.8994 136.107 13.8278C136.107 13.7562 136.107 13.7204 136.143 13.6488C136.143 13.613 136.179 13.5414 136.179 13.4698C136.215 13.434 136.215 13.3983 136.251 13.3267C136.251 13.2909 136.286 13.2193 136.322 13.1477C136.322 13.1119 136.358 13.0761 136.394 13.0045C136.394 12.9687 136.43 12.8971 136.465 12.8613C136.501 12.7897 136.537 12.7539 136.537 12.7182C136.573 12.6466 136.609 12.6108 136.644 12.575C136.68 12.5034 136.716 12.4676 136.752 12.4318C136.787 12.3602 136.823 12.3244 136.859 12.2886C136.895 12.2528 136.931 12.1812 136.966 12.1454C137.002 12.1096 137.038 12.0738 137.074 12.038C137.145 12.0023 137.181 11.9307 137.217 11.8949C137.253 11.8591 137.289 11.8233 137.36 11.7875C137.396 11.7517 137.432 11.7159 137.503 11.6801C137.539 11.6443 137.575 11.6443 137.611 11.6085C137.682 11.5727 137.718 11.5369 137.79 11.5011C137.826 11.4653 137.861 11.4295 137.933 11.4295C137.969 11.3937 138.04 11.358 138.112 11.3222C138.148 11.3222 138.183 11.2864 138.219 11.2864C138.291 11.2506 138.362 11.2148 138.434 11.2148C138.47 11.179 138.506 11.179 138.577 11.1432C138.649 11.1432 138.72 11.1074 138.792 11.1074C138.828 11.0716 138.864 11.0716 138.899 11.0716C139.007 11.0358 139.078 11.0358 139.15 11.0358C139.186 11.0358 139.222 11 139.257 11C139.401 11 139.508 11 139.615 11C139.758 11 139.866 11 140.009 11C140.868 11.1074 141.62 11.4653 142.192 12.038C142.264 12.1096 142.3 12.1812 142.371 12.2528L142.407 12.2886L162.774 36.3069V14.6153C162.774 12.6108 164.421 11 166.426 11C168.43 11 170.041 12.6108 170.041 14.6153V46.1863Z" fill="url(#paint4_linear_796_3052)"/>
<path d="M100.408 36.0717C100.408 34.0672 100.195 32.7964 102.2 32.7964C104.204 32.7964 118.45 32.7964 118.45 32.7964C117.269 30.1476 114.907 28.5011 111.685 28.5011C107.784 28.5011 104.383 32.0089 104.383 36.4117C104.383 37.7719 104.634 38.9889 105.063 39.9912C105.493 41.0292 106.101 41.8883 106.889 42.5326C107.426 42.9979 108.034 43.3917 108.786 43.678C109.752 44.0718 110.933 44.3223 112.401 44.3223C113.332 44.3223 114.334 44.1076 115.3 43.7496C116.267 43.3559 117.198 42.819 117.878 42.1747C118.522 41.6019 119.381 41.244 120.312 41.244C122.316 41.244 123.927 42.8906 123.927 44.8951C123.927 45.9689 123.462 46.8996 122.746 47.5797C122.71 47.6155 122.674 47.6513 122.638 47.6513C122.638 47.687 122.603 47.687 122.603 47.687C121.207 48.9041 119.632 49.8347 117.949 50.5148C116.195 51.1949 114.298 51.5887 112.401 51.5887C110.468 51.5887 108.643 51.3023 106.96 50.7296C105.314 50.1927 103.775 49.3694 102.486 48.2956C101.627 47.6155 100.839 46.828 100.195 45.9331C99.3002 44.7877 98.6201 43.4991 98.119 42.1389C97.4389 40.3491 97.1167 38.4162 97.1167 36.4117C97.1167 28.0715 103.739 21.2705 111.685 21.2705C120.312 21.2705 126.433 27.9641 126.433 36.4117C126.433 38.4162 124.786 40.027 122.782 40.027H102.2C100.195 40.027 100.408 38.0762 100.408 36.0717Z" fill="#6647D6"/>
<path d="M81.365 34.1928H80.7565H81.5081C81.4724 34.1928 81.4366 34.1928 81.4008 34.1928C81.365 34.1928 81.365 34.1928 81.365 34.1928ZM90.4926 29.4321C99.4771 36.3762 94.5374 50.8373 83.1905 50.8373H65.6153C65.5079 50.8373 65.3647 50.8373 65.2573 50.8373C63.8613 50.6942 62.7159 49.7635 62.2506 48.5107C62.1074 48.1169 62 47.6874 62 47.2221V15.6511C62 15.6153 62 15.6153 62 15.6153C62 13.6108 63.6108 12 65.6153 12C65.6511 12 65.6511 12 65.6511 12H65.6869H81.365C90.2421 12 95.5397 21.9509 90.6 29.2889C90.5642 29.3605 90.5284 29.3963 90.4926 29.4321ZM83.1905 26.9264C83.2621 26.9264 83.3337 26.9264 83.4053 26.9264C83.0831 26.9264 82.7968 26.9264 82.5104 26.9264H83.1905ZM83.1905 43.6068C86.9848 43.6068 89.1682 39.3472 87.0921 36.2689C85.374 33.7274 82.7252 34.2643 81.5081 34.1928H74.9935C74.9577 34.1928 74.9219 34.1928 74.8861 34.1928C72.8816 34.1928 71.235 32.582 71.235 30.5775C71.235 30.5775 71.235 30.5775 71.235 30.5417C71.235 28.6804 72.6668 27.1412 74.4924 26.9622C74.6356 26.9622 74.7429 26.9264 74.8861 26.9264H80.7923H81.4366C86.3762 26.8548 86.4836 19.4811 81.6155 19.2663L69.2663 19.3021V43.6068H83.1905Z" fill="#6647D6"/>
<path d="M25 26.5C30 20.5 47.7722 21.5 48.5 35.4999C49.2277 49.4998 34.6198 50.4746 34.6198 50.4746H4V17.5353C3.99992 12 7.5 4 18.5 4C29.5 4 31.5 14.5 31.5 14.5" stroke="url(#paint5_linear_796_3052)" stroke-width="7" stroke-linecap="round" stroke-linejoin="round"/>
<path fill-rule="evenodd" clip-rule="evenodd" d="M17.8361 28.5H17.8361C17.8361 32.8369 21.3406 36.3552 25.6722 36.3776C21.3406 36.4001 17.8361 39.9184 17.8361 44.2553C17.8361 44.2554 17.8361 44.2554 17.8361 44.2555C17.8361 44.2555 17.8361 44.2555 17.8361 44.2555H17.8359V44.2553C17.8359 39.9185 14.3315 36.4002 10 36.3776C14.3315 36.3551 17.8359 32.8368 17.8359 28.5H17.8361Z" fill="#6647D6"/>
<defs>
<linearGradient id="paint0_linear_796_3052" x1="246.684" y1="31.4856" x2="281.135" y2="31.6" gradientUnits="userSpaceOnUse">
<stop stop-color="#9669F9"/>
<stop offset="1" stop-color="#9669F9"/>
</linearGradient>
<linearGradient id="paint1_linear_796_3052" x1="221.67" y1="31.4716" x2="248.76" y2="31.5427" gradientUnits="userSpaceOnUse">
<stop stop-color="#9669F9"/>
<stop offset="1" stop-color="#9669F9"/>
</linearGradient>
<linearGradient id="paint2_linear_796_3052" x1="200.465" y1="31.4583" x2="225.788" y2="31.5223" gradientUnits="userSpaceOnUse">
<stop stop-color="#9669F9"/>
<stop offset="1" stop-color="#9669F9"/>
</linearGradient>
<linearGradient id="paint3_linear_796_3052" x1="172.025" y1="31.5194" x2="203.153" y2="31.6149" gradientUnits="userSpaceOnUse">
<stop stop-color="#9669F9"/>
<stop offset="1" stop-color="#9669F9"/>
</linearGradient>
<linearGradient id="paint4_linear_796_3052" x1="136" y1="25.3982" x2="176.004" y2="25.5188" gradientUnits="userSpaceOnUse">
<stop stop-color="#9669F9"/>
<stop offset="1" stop-color="#9669F9"/>
</linearGradient>
<linearGradient id="paint5_linear_796_3052" x1="29.9007" y1="-4.5" x2="29.9007" y2="50.5" gradientUnits="userSpaceOnUse">
<stop stop-color="#9669F9"/>
<stop offset="1" stop-color="#6647D6"/>
</linearGradient>
</defs>
</svg>
