<svg width="210" height="88" viewBox="0 0 210 88" fill="none" xmlns="http://www.w3.org/2000/svg">
<path d="M185.646 72.6993C185.646 70.6948 185.552 69.084 187.557 69.084H202.018C200.837 66.4352 198.474 64.7886 195.253 64.7886C191.351 64.7886 187.95 68.2965 187.95 72.6993C187.95 74.0595 188.201 75.2765 188.631 76.2788C189.06 77.3168 189.669 78.1759 190.456 78.8202C190.993 79.2855 191.601 79.6793 192.353 79.9656C193.32 80.3594 194.501 80.6099 195.968 80.6099C196.899 80.6099 197.901 80.3952 198.868 80.0372C199.834 79.6435 200.765 79.1066 201.445 78.4623C202.089 77.8895 202.948 77.5316 203.879 77.5316C205.884 77.5316 207.494 79.1781 207.494 81.1827C207.494 82.2565 207.029 83.1872 206.313 83.8673C206.277 83.9031 206.242 83.9389 206.206 83.9389C206.206 83.9746 206.17 83.9746 206.17 83.9746C204.774 85.1917 203.199 86.1223 201.517 86.8024C199.763 87.4825 197.866 87.8763 195.968 87.8763C194.036 87.8763 192.21 87.5899 190.528 87.0172C188.881 86.4803 187.342 85.657 186.053 84.5832C185.194 83.9031 184.407 83.1156 183.762 82.2207C182.868 81.0753 182.187 79.7867 181.686 78.4265C181.006 76.6367 180.684 74.7038 180.684 72.6993C180.684 64.3591 187.306 57.5581 195.253 57.5581C203.879 57.5581 210 64.2517 210 72.6993C210 74.7038 208.353 76.3146 206.349 76.3146H187.557C185.552 76.3146 185.646 74.7038 185.646 72.6993Z" fill="url(#paint0_linear_257_2774)"/>
<path d="M165.836 68.3682C168.234 69.1915 178.722 70.1579 178.722 78.4981C178.722 83.581 174.749 87.7689 167.983 87.7689C164.046 87.7689 160.896 86.5877 157.71 84.5832C156.493 84.0105 155.67 82.7577 155.67 81.3259C155.67 79.3214 157.281 77.6748 159.285 77.6748C160.037 77.6748 160.717 77.9254 161.29 78.2833V78.2475C163.33 79.5719 165.263 80.5026 167.983 80.5026C169.558 80.5026 171.455 80.1089 171.455 78.4981C171.455 78.3191 171.455 78.2475 171.42 78.1759C171.026 77.0663 167.339 76.2072 166.194 75.9567C160.968 74.7754 156.529 72.1982 156.529 66.9006C156.529 66.8648 156.529 66.8648 156.529 66.8648C156.529 66.829 156.529 66.829 156.529 66.7932C156.529 58.8826 164.583 55.9116 172.1 58.5246C173.317 58.9542 174.462 59.4911 175.536 60.028C176.681 60.6365 177.469 61.8535 177.469 63.2495C177.469 65.254 175.858 66.8648 173.854 66.8648C173.746 66.8648 173.639 66.8648 173.567 66.8648C173.102 66.829 172.672 66.6858 172.279 66.5068C170.883 65.9341 169.415 64.8603 166.838 64.8603C163.939 64.8603 163.795 65.8625 163.795 66.8648C163.795 67.008 163.795 67.0796 163.831 67.1154C164.046 67.6523 165.299 68.1534 165.836 68.3682Z" fill="url(#paint1_linear_257_2774)"/>
<path d="M153.616 59.2762C155.012 59.7773 156.014 61.1017 156.014 62.6767C156.014 64.6812 154.403 66.3278 152.399 66.3278C151.969 66.3278 151.539 66.2562 151.146 66.113C149.32 65.4687 146.922 64.8602 145.061 65.4329C142.233 66.292 141.732 70.0146 141.732 70.9811V83.5451C141.732 83.5809 141.732 83.5809 141.732 83.5809C141.732 85.5854 140.085 87.1961 138.081 87.1961C136.076 87.1961 134.465 85.5854 134.465 83.5809C134.465 83.5809 134.465 83.5809 134.465 83.5451V71.0169V70.9811V61.5671C134.465 59.5626 136.076 57.916 138.081 57.916C139.262 57.916 140.3 58.4529 140.944 59.312C143.987 57.7012 148.139 57.3433 153.472 59.2404C153.508 59.2404 153.58 59.2404 153.616 59.2762Z" fill="url(#paint2_linear_257_2774)"/>
<path d="M132.514 74.453V83.867C132.514 85.8715 130.903 87.4823 128.898 87.4823C127.574 87.4823 126.428 86.8022 125.784 85.7284C117.014 90.5965 106.025 84.4398 106.025 74.453C106.025 74.3456 106.025 74.274 106.025 74.1667V61.7459C106.025 61.6385 106.025 61.5669 106.025 61.4595C106.025 61.3879 106.025 61.2805 106.025 61.2089V61.1732C106.204 59.3118 107.744 57.8442 109.641 57.8442C111.574 57.8442 113.113 59.3118 113.256 61.1732H113.292V74.453C113.292 75.0257 113.363 75.5984 113.542 76.1354C115.547 82.4352 125.283 80.8961 125.283 74.453V61.4953C125.283 61.4953 125.283 61.4953 125.283 61.4595C125.283 59.455 126.894 57.8442 128.898 57.8442C130.903 57.8442 132.514 59.455 132.514 61.4595C132.514 61.4953 132.514 61.4953 132.514 61.4953V74.453Z" fill="url(#paint3_linear_257_2774)"/>
<path d="M104.041 83.509C104.041 83.5448 104.041 83.6164 104.041 83.6522C103.969 85.5851 102.358 87.1243 100.426 87.1243C99.2801 87.1243 98.3137 86.6232 97.6336 85.8357L77.2663 61.8174V83.509C77.2663 85.5135 75.6198 87.1243 73.6153 87.1243C71.6108 87.1243 70 85.5135 70 83.509V51.938C70 51.9022 70 51.8664 70 51.7948C70 51.7591 70 51.7233 70 51.6875C70.0358 51.6159 70.0358 51.5801 70.0358 51.5085C70.0358 51.4369 70.0358 51.4011 70.0716 51.3295C70.0716 51.2579 70.0716 51.2221 70.1074 51.1505C70.1074 51.079 70.1074 51.0432 70.1432 50.9716C70.1432 50.9358 70.179 50.8642 70.179 50.7926C70.2148 50.7568 70.2148 50.721 70.2506 50.6494C70.2506 50.6136 70.2864 50.542 70.3222 50.4704C70.3222 50.4346 70.3579 50.3989 70.3937 50.3273C70.3937 50.2915 70.4295 50.2199 70.4653 50.1841C70.5011 50.1125 70.5369 50.0767 70.5369 50.0409C70.5727 49.9693 70.6085 49.9335 70.6443 49.8977C70.6801 49.8261 70.7159 49.7903 70.7517 49.7545C70.7875 49.683 70.8233 49.6472 70.8591 49.6114C70.8949 49.5756 70.9307 49.504 70.9665 49.4682C71.0023 49.4324 71.038 49.3966 71.0738 49.3608C71.1454 49.325 71.1812 49.2534 71.217 49.2176C71.2528 49.1818 71.2886 49.146 71.3602 49.1102C71.396 49.0744 71.4318 49.0387 71.5034 49.0029C71.5392 48.9671 71.575 48.9671 71.6108 48.9313C71.6823 48.8955 71.7181 48.8597 71.7897 48.8239C71.8255 48.7881 71.8613 48.7523 71.9329 48.7523C71.9687 48.7165 72.0403 48.6807 72.1119 48.6449C72.1477 48.6449 72.1835 48.6091 72.2193 48.6091C72.2909 48.5733 72.3625 48.5375 72.434 48.5375C72.4698 48.5017 72.5056 48.5017 72.5772 48.4659C72.6488 48.4659 72.7204 48.4301 72.792 48.4301C72.8278 48.3943 72.8636 48.3943 72.8994 48.3943C73.0068 48.3586 73.0783 48.3586 73.1499 48.3586C73.1857 48.3586 73.2215 48.3228 73.2573 48.3228C73.4005 48.3228 73.5079 48.3228 73.6153 48.3228C73.7585 48.3228 73.8658 48.3228 74.009 48.3228C74.8681 48.4301 75.6198 48.7881 76.1925 49.3608C76.2641 49.4324 76.2999 49.504 76.3715 49.5756L76.4073 49.6114L96.7745 73.6297V51.938C96.7745 49.9335 98.421 48.3228 100.426 48.3228C102.43 48.3228 104.041 49.9335 104.041 51.938V83.509Z" fill="url(#paint4_linear_257_2774)"/>
<path d="M108.408 24.0717C108.408 22.0672 108.195 20.7964 110.2 20.7964C112.204 20.7964 126.45 20.7964 126.45 20.7964C125.269 18.1476 122.907 16.5011 119.685 16.5011C115.784 16.5011 112.383 20.0089 112.383 24.4117C112.383 25.7719 112.634 26.9889 113.063 27.9912C113.493 29.0292 114.101 29.8883 114.889 30.5326C115.426 30.9979 116.034 31.3917 116.786 31.678C117.752 32.0718 118.933 32.3223 120.401 32.3223C121.332 32.3223 122.334 32.1076 123.3 31.7496C124.267 31.3559 125.198 30.819 125.878 30.1747C126.522 29.6019 127.381 29.244 128.312 29.244C130.316 29.244 131.927 30.8906 131.927 32.8951C131.927 33.9689 131.462 34.8996 130.746 35.5797C130.71 35.6155 130.674 35.6513 130.638 35.6513C130.638 35.687 130.603 35.687 130.603 35.687C129.207 36.9041 127.632 37.8347 125.949 38.5148C124.195 39.1949 122.298 39.5887 120.401 39.5887C118.468 39.5887 116.643 39.3023 114.96 38.7296C113.314 38.1927 111.775 37.3694 110.486 36.2956C109.627 35.6155 108.839 34.828 108.195 33.9331C107.3 32.7877 106.62 31.4991 106.119 30.1389C105.439 28.3491 105.117 26.4162 105.117 24.4117C105.117 16.0715 111.739 9.27051 119.685 9.27051C128.312 9.27051 134.433 15.9641 134.433 24.4117C134.433 26.4162 132.786 28.027 130.782 28.027H110.2C108.195 28.027 108.408 26.0762 108.408 24.0717Z" fill="#6647D6"/>
<path d="M89.365 22.1928H88.7565H89.5082C89.4724 22.1928 89.4366 22.1928 89.4008 22.1928C89.365 22.1928 89.365 22.1928 89.365 22.1928ZM98.4926 17.4321C107.477 24.3762 102.537 38.8373 91.1905 38.8373H73.6153C73.5079 38.8373 73.3647 38.8373 73.2573 38.8373C71.8613 38.6942 70.7159 37.7635 70.2506 36.5107C70.1074 36.1169 70 35.6874 70 35.2221V3.65107C70 3.61527 70 3.61527 70 3.61527C70 1.61076 71.6108 0 73.6153 0C73.6511 0 73.6511 0 73.6511 0H73.6869H89.365C98.2421 0 103.54 9.95095 98.6 17.2889C98.5642 17.3605 98.5284 17.3963 98.4926 17.4321ZM91.1905 14.9264C91.2621 14.9264 91.3337 14.9264 91.4053 14.9264C91.0831 14.9264 90.7968 14.9264 90.5104 14.9264H91.1905ZM91.1905 31.6068C94.9848 31.6068 97.1682 27.3472 95.0921 24.2689C93.374 21.7274 90.7252 22.2643 89.5082 22.1928H82.9935C82.9577 22.1928 82.9219 22.1928 82.8861 22.1928C80.8816 22.1928 79.2351 20.582 79.2351 18.5775C79.2351 18.5775 79.2351 18.5775 79.2351 18.5417C79.2351 16.6804 80.6668 15.1412 82.4924 14.9622C82.6356 14.9622 82.7429 14.9264 82.8861 14.9264H88.7923H89.4366C94.3762 14.8548 94.4836 7.48111 89.6155 7.26634L77.2663 7.30213V31.6068H91.1905Z" fill="#6647D6"/>
<path d="M25 41.5C30 35.5 47.7722 36.5 48.5 50.4999C49.2277 64.4998 34.6198 65.4746 34.6198 65.4746H4V32.5353C3.99992 27 7.5 19 18.5 19C29.5 19 31.5 29.5 31.5 29.5" stroke="url(#paint5_linear_257_2774)" stroke-width="7" stroke-linecap="round" stroke-linejoin="round"/>
<path fill-rule="evenodd" clip-rule="evenodd" d="M17.8361 43.5H17.8361C17.8361 47.8369 21.3406 51.3552 25.6722 51.3776C21.3406 51.4001 17.8361 54.9184 17.8361 59.2553C17.8361 59.2554 17.8361 59.2554 17.8361 59.2555C17.8361 59.2555 17.8361 59.2555 17.8361 59.2555H17.8359V59.2553C17.8359 54.9185 14.3315 51.4002 10 51.3776C14.3315 51.3551 17.8359 47.8368 17.8359 43.5H17.8361Z" fill="#6647D6"/>
<defs>
<linearGradient id="paint0_linear_257_2774" x1="180.684" y1="68.8084" x2="215.135" y2="68.9228" gradientUnits="userSpaceOnUse">
<stop stop-color="#9669F9"/>
<stop offset="1" stop-color="#9669F9"/>
</linearGradient>
<linearGradient id="paint1_linear_257_2774" x1="155.67" y1="68.7943" x2="182.76" y2="68.8654" gradientUnits="userSpaceOnUse">
<stop stop-color="#9669F9"/>
<stop offset="1" stop-color="#9669F9"/>
</linearGradient>
<linearGradient id="paint2_linear_257_2774" x1="134.465" y1="68.7811" x2="159.788" y2="68.8451" gradientUnits="userSpaceOnUse">
<stop stop-color="#9669F9"/>
<stop offset="1" stop-color="#9669F9"/>
</linearGradient>
<linearGradient id="paint3_linear_257_2774" x1="106.025" y1="68.8421" x2="137.153" y2="68.9377" gradientUnits="userSpaceOnUse">
<stop stop-color="#9669F9"/>
<stop offset="1" stop-color="#9669F9"/>
</linearGradient>
<linearGradient id="paint4_linear_257_2774" x1="70" y1="62.721" x2="110.004" y2="62.8415" gradientUnits="userSpaceOnUse">
<stop stop-color="#9669F9"/>
<stop offset="1" stop-color="#9669F9"/>
</linearGradient>
<linearGradient id="paint5_linear_257_2774" x1="29.9007" y1="10.5" x2="29.9007" y2="65.5" gradientUnits="userSpaceOnUse">
<stop stop-color="#9669F9"/>
<stop offset="1" stop-color="#6647D6"/>
</linearGradient>
</defs>
</svg>
