<svg width="224" height="88" viewBox="0 0 224 88" fill="none" xmlns="http://www.w3.org/2000/svg">
<path fill-rule="evenodd" clip-rule="evenodd" d="M102.756 22.1928H103.365H103.401H103.508C103.703 22.2042 103.934 22.2001 104.192 22.1955C105.549 22.1713 107.649 22.134 109.092 24.2689C111.168 27.3472 108.985 31.6068 105.191 31.6068H91.2663V7.30213L103.616 7.26634C108.484 7.48111 108.376 14.8548 103.437 14.9264H102.792H96.8861C96.8145 14.9264 96.7519 14.9354 96.6892 14.9443C96.6266 14.9533 96.564 14.9622 96.4924 14.9622C94.6668 15.1412 93.2351 16.6804 93.2351 18.5417V18.5775C93.2351 20.582 94.8816 22.1928 96.8861 22.1928H96.9935H102.756ZM105.191 38.8373C116.537 38.8373 121.477 24.3762 112.493 17.4321L112.493 17.432C112.528 17.3963 112.564 17.3605 112.6 17.2889C117.54 9.95095 112.242 0 103.365 0H87.6869H87.6511H87.6153C85.6108 0 84 1.61076 84 3.61527V3.65107V35.2221C84 35.6874 84.1074 36.1169 84.2506 36.5107C84.7159 37.7635 85.8613 38.6942 87.2573 38.8373H87.6153H105.191ZM128.889 30.5327C128.11 29.8959 127.507 29.0491 127.078 28.0271H144.782C146.786 28.0271 148.433 26.4163 148.433 24.4118C148.433 15.9643 142.312 9.27064 133.685 9.27064C125.739 9.27064 119.117 16.0716 119.117 24.4118C119.117 26.4163 119.439 28.3493 120.119 30.139C120.62 31.4992 121.3 32.7878 122.195 33.9332C122.839 34.8281 123.627 35.6156 124.486 36.2957C125.775 37.3695 127.314 38.1928 128.96 38.7297C130.643 39.3025 132.468 39.5888 134.401 39.5888C136.298 39.5888 138.195 39.1951 139.949 38.515C141.632 37.8349 143.207 36.9042 144.603 35.6872C144.603 35.6872 144.638 35.6872 144.638 35.6514C144.674 35.6514 144.71 35.6156 144.746 35.5798C145.462 34.8997 145.927 33.969 145.927 32.8952C145.927 30.8907 144.316 29.2441 142.312 29.2441C141.381 29.2441 140.522 29.6021 139.878 30.1748C139.198 30.8191 138.267 31.356 137.3 31.7498C136.334 32.1077 135.332 32.3225 134.401 32.3225C132.934 32.3225 131.752 32.0719 130.786 31.6782C130.034 31.3918 129.426 30.9981 128.889 30.5327ZM140.45 20.7966H127.206C128.446 18.2359 130.942 16.5012 133.685 16.5012C136.907 16.5012 139.269 18.1477 140.45 20.7966ZM118.041 83.6523V83.5092V51.9382C118.041 49.9337 116.43 48.3229 114.426 48.3229C112.421 48.3229 110.774 49.9337 110.774 51.9382V73.6298L90.4073 49.6115L90.3715 49.5757C90.3357 49.5399 90.3088 49.5041 90.282 49.4683C90.2551 49.4325 90.2283 49.3967 90.1925 49.361C89.6198 48.7882 88.8681 48.4303 88.009 48.3229H87.6153H87.2573C87.2394 48.3229 87.2215 48.3319 87.2036 48.3408C87.1857 48.3498 87.1678 48.3587 87.1499 48.3587C87.0783 48.3587 87.0068 48.3587 86.8994 48.3945C86.8636 48.3945 86.8278 48.3945 86.792 48.4303C86.7562 48.4303 86.7204 48.4392 86.6846 48.4482C86.6488 48.4571 86.613 48.4661 86.5772 48.4661C86.5499 48.4798 86.5278 48.4882 86.5089 48.4954C86.4783 48.5071 86.4562 48.5156 86.434 48.5377C86.3625 48.5377 86.2909 48.5735 86.2193 48.6092L86.2193 48.6093C86.2014 48.6093 86.1835 48.6182 86.1656 48.6272C86.1477 48.6361 86.1298 48.6451 86.1119 48.6451L86.1118 48.6451C86.0403 48.6809 85.9687 48.7167 85.9329 48.7524C85.8613 48.7524 85.8255 48.7882 85.7897 48.824C85.7539 48.8419 85.7271 48.8598 85.7002 48.8777C85.6734 48.8956 85.6466 48.9135 85.6108 48.9314C85.5929 48.9493 85.575 48.9583 85.5571 48.9672C85.5392 48.9762 85.5213 48.9851 85.5034 49.003C85.4318 49.0388 85.396 49.0746 85.3602 49.1104C85.2886 49.1462 85.2528 49.182 85.217 49.2178L85.217 49.2178C85.2062 49.2286 85.1953 49.2427 85.1835 49.2581C85.1563 49.2936 85.1238 49.336 85.0738 49.361L84.9665 49.4683C84.9486 49.4862 84.9307 49.5131 84.9128 49.5399L84.9127 49.54C84.8949 49.5668 84.877 49.5936 84.8591 49.6115C84.8233 49.6473 84.7875 49.6831 84.7517 49.7547C84.7159 49.7905 84.6801 49.8263 84.6443 49.8979L84.6443 49.8979C84.6085 49.9337 84.5727 49.9695 84.5369 50.0411C84.5369 50.0632 84.5232 50.0853 84.5044 50.1159C84.4927 50.1348 84.479 50.1569 84.4653 50.1842C84.4295 50.22 84.3937 50.2916 84.3937 50.3274C84.3801 50.3547 84.3664 50.3768 84.3548 50.3957L84.3547 50.3957L84.3547 50.3958C84.3358 50.4263 84.3222 50.4485 84.3222 50.4706C84.2864 50.5422 84.2506 50.6138 84.2506 50.6496C84.2369 50.6769 84.2284 50.699 84.2212 50.7179C84.2095 50.7485 84.2011 50.7706 84.179 50.7927C84.179 50.8347 84.1667 50.8766 84.1565 50.9114C84.1493 50.9359 84.1432 50.9569 84.1432 50.9717C84.1074 51.0433 84.1074 51.0791 84.1074 51.1507C84.0716 51.2223 84.0716 51.2581 84.0716 51.3296V51.3297C84.0358 51.4013 84.0358 51.437 84.0358 51.5086C84.0358 51.5802 84.0358 51.616 84 51.6876V51.795V51.9382V83.5092C84 85.5137 85.6108 87.1244 87.6153 87.1244C89.6198 87.1244 91.2663 85.5137 91.2663 83.5092V61.8175L111.634 85.8358C112.314 86.6233 113.28 87.1244 114.426 87.1244C116.358 87.1244 117.969 85.5853 118.041 83.6523ZM204.456 78.8201C203.678 78.1832 203.074 77.3365 202.645 76.3145H220.349C222.353 76.3145 224 74.7037 224 72.6992C224 64.2516 217.879 57.558 209.252 57.558C201.306 57.558 194.684 64.359 194.684 72.6992C194.684 74.7037 195.006 76.6366 195.686 78.4264C196.187 79.7866 196.867 81.0752 197.762 82.2206C198.407 83.1155 199.194 83.903 200.053 84.5831C201.342 85.6569 202.881 86.4802 204.528 87.0171C206.21 87.5898 208.035 87.8762 209.968 87.8762C211.866 87.8762 213.763 87.4825 215.517 86.8024C217.199 86.1223 218.774 85.1916 220.17 83.9746C220.17 83.9746 220.206 83.9746 220.206 83.9388C220.241 83.9388 220.277 83.903 220.313 83.8672C221.029 83.1871 221.494 82.2564 221.494 81.1826C221.494 79.1781 219.884 77.5315 217.879 77.5315C216.948 77.5315 216.089 77.8895 215.445 78.4622C214.765 79.1065 213.834 79.6434 212.868 80.0371C211.901 80.3951 210.899 80.6099 209.968 80.6099C208.501 80.6099 207.32 80.3593 206.353 79.9656C205.601 79.6792 204.993 79.2855 204.456 78.8201ZM216.018 69.0839H202.773C204.013 66.5233 206.509 64.7886 209.252 64.7886C212.474 64.7886 214.836 66.4351 216.018 69.0839ZM179.835 68.3681C180.197 68.4923 180.743 68.6198 181.41 68.7754C185.16 69.6509 192.722 71.4162 192.722 78.498C192.722 83.5808 188.748 87.7688 181.983 87.7688C178.046 87.7688 174.896 86.5876 171.71 84.5831C170.493 84.0104 169.67 82.7576 169.67 81.3258C169.67 79.3213 171.28 77.6747 173.285 77.6747C174.037 77.6747 174.717 77.9253 175.289 78.2832V78.2474C177.33 79.5718 179.263 80.5025 181.983 80.5025C183.558 80.5025 185.455 80.1087 185.455 78.498V78.4979C185.455 78.319 185.455 78.2474 185.419 78.1758C185.026 77.0662 181.339 76.2071 180.193 75.9566C174.967 74.7753 170.529 72.1981 170.529 66.9005V66.8647V66.7931C170.529 58.8824 178.583 55.9115 186.1 58.5245C187.317 58.954 188.462 59.491 189.536 60.0279C190.681 60.6364 191.469 61.8534 191.469 63.2494C191.469 65.2539 189.858 66.8647 187.853 66.8647H187.567C187.102 66.8289 186.672 66.6857 186.278 66.5067C185.965 66.3782 185.648 66.2245 185.316 66.0633C184.168 65.5062 182.837 64.8602 180.838 64.8602C177.938 64.8602 177.795 65.8624 177.795 66.8647C177.795 67.0079 177.795 67.0794 177.831 67.1152C178.046 67.6522 179.298 68.1533 179.835 68.3681ZM170.014 62.6766C170.014 61.1017 169.012 59.7773 167.616 59.2761C167.58 59.2403 167.508 59.2403 167.472 59.2403C162.139 57.3432 157.987 57.7012 154.944 59.3119C154.3 58.4529 153.262 57.9159 152.081 57.9159C150.076 57.9159 148.465 59.5625 148.465 61.567V70.981V71.0168V83.545V83.5808C148.465 85.5853 150.076 87.1961 152.081 87.1961C154.085 87.1961 155.732 85.5853 155.732 83.5808V83.545V70.981C155.732 70.0146 156.233 66.2919 159.061 65.4328C160.922 64.8601 163.32 65.4686 165.146 66.1129C165.54 66.2561 165.969 66.3277 166.399 66.3277C168.403 66.3277 170.014 64.6812 170.014 62.6766ZM146.514 74.4531V83.8671C146.514 85.8716 144.903 87.4824 142.898 87.4824C141.574 87.4824 140.428 86.8023 139.784 85.7284C131.014 90.5965 120.025 84.4398 120.025 74.4531V74.1667V61.7459V61.4596V61.209V61.1732C120.204 59.3119 121.744 57.8443 123.641 57.8443C125.574 57.8443 127.113 59.3119 127.256 61.1732H127.292V74.4531C127.292 75.0258 127.363 75.5985 127.542 76.1354C129.547 82.4353 139.283 80.8961 139.283 74.4531V61.4953V61.4596C139.283 59.455 140.894 57.8443 142.898 57.8443C144.903 57.8443 146.514 59.455 146.514 61.4596V61.4953V74.4531Z" fill="white"/>
<path d="M36.6198 42.6188C36.6198 42.6188 55.8013 39.8324 55.8013 56.0591C55.8013 72.2859 36.6198 70.9746 36.6198 70.9746H4V28.0353C4.93703 23.7191 9.99218 14.2996 21.1042 16.2666C35.6793 18.8467 35.2763 40.2126 22.0816 42.6561" stroke="url(#paint0_linear_604_2880)" stroke-width="7" stroke-linecap="round" stroke-linejoin="round"/>
<path fill-rule="evenodd" clip-rule="evenodd" d="M25.5263 47.543H25.5263C25.5263 51.8798 29.0308 55.3982 33.3624 55.4206C29.0308 55.443 25.5263 58.9614 25.5263 63.2983C25.5263 63.2983 25.5263 63.2984 25.5263 63.2985C25.5263 63.2985 25.5263 63.2985 25.5263 63.2985H25.5261V63.2983C25.5261 58.9615 22.0217 55.4432 17.6902 55.4206C22.0217 55.3981 25.5261 51.8798 25.5261 47.543H25.5263Z" fill="white"/>
<defs>
<linearGradient id="paint0_linear_604_2880" x1="29.9007" y1="16" x2="29.9007" y2="71" gradientUnits="userSpaceOnUse">
<stop stop-color="white"/>
<stop offset="1" stop-color="white"/>
</linearGradient>
</defs>
</svg>
