<svg width="224" height="88" viewBox="0 0 224 88" fill="none" xmlns="http://www.w3.org/2000/svg">
<path d="M199.646 72.6993C199.646 70.6948 199.552 69.084 201.557 69.084H216.018C214.837 66.4352 212.474 64.7886 209.253 64.7886C205.351 64.7886 201.95 68.2965 201.95 72.6993C201.95 74.0595 202.201 75.2765 202.631 76.2788C203.06 77.3168 203.669 78.1759 204.456 78.8202C204.993 79.2855 205.601 79.6793 206.353 79.9656C207.32 80.3594 208.501 80.6099 209.968 80.6099C210.899 80.6099 211.901 80.3952 212.868 80.0372C213.834 79.6435 214.765 79.1066 215.445 78.4623C216.089 77.8895 216.948 77.5316 217.879 77.5316C219.884 77.5316 221.494 79.1781 221.494 81.1827C221.494 82.2565 221.029 83.1872 220.313 83.8673C220.277 83.9031 220.242 83.9389 220.206 83.9389C220.206 83.9746 220.17 83.9746 220.17 83.9746C218.774 85.1917 217.199 86.1223 215.517 86.8024C213.763 87.4825 211.866 87.8763 209.968 87.8763C208.036 87.8763 206.21 87.5899 204.528 87.0172C202.881 86.4803 201.342 85.657 200.053 84.5832C199.194 83.9031 198.407 83.1156 197.762 82.2207C196.868 81.0753 196.187 79.7867 195.686 78.4265C195.006 76.6367 194.684 74.7038 194.684 72.6993C194.684 64.3591 201.306 57.5581 209.253 57.5581C217.879 57.5581 224 64.2517 224 72.6993C224 74.7038 222.353 76.3146 220.349 76.3146H201.557C199.552 76.3146 199.646 74.7038 199.646 72.6993Z" fill="url(#paint0_linear_604_2879)"/>
<path d="M179.835 68.3682C182.234 69.1915 192.722 70.1579 192.722 78.4981C192.722 83.581 188.748 87.7689 181.983 87.7689C178.046 87.7689 174.896 86.5877 171.71 84.5832C170.493 84.0105 169.67 82.7577 169.67 81.3259C169.67 79.3214 171.28 77.6748 173.285 77.6748C174.037 77.6748 174.717 77.9254 175.289 78.2833V78.2475C177.33 79.5719 179.263 80.5026 181.983 80.5026C183.558 80.5026 185.455 80.1089 185.455 78.4981C185.455 78.3191 185.455 78.2475 185.419 78.1759C185.026 77.0663 181.339 76.2072 180.193 75.9567C174.967 74.7754 170.529 72.1982 170.529 66.9006C170.529 66.8648 170.529 66.8648 170.529 66.8648C170.529 66.829 170.529 66.829 170.529 66.7932C170.529 58.8826 178.583 55.9116 186.099 58.5246C187.317 58.9542 188.462 59.4911 189.536 60.028C190.681 60.6365 191.469 61.8535 191.469 63.2495C191.469 65.254 189.858 66.8648 187.853 66.8648C187.746 66.8648 187.639 66.8648 187.567 66.8648C187.102 66.829 186.672 66.6858 186.278 66.5068C184.882 65.9341 183.415 64.8603 180.838 64.8603C177.938 64.8603 177.795 65.8625 177.795 66.8648C177.795 67.008 177.795 67.0796 177.831 67.1154C178.046 67.6523 179.298 68.1534 179.835 68.3682Z" fill="url(#paint1_linear_604_2879)"/>
<path d="M167.616 59.2762C169.012 59.7773 170.014 61.1017 170.014 62.6767C170.014 64.6812 168.403 66.3278 166.399 66.3278C165.969 66.3278 165.54 66.2562 165.146 66.113C163.32 65.4687 160.922 64.8602 159.061 65.4329C156.233 66.292 155.732 70.0146 155.732 70.9811V83.5451C155.732 83.5809 155.732 83.5809 155.732 83.5809C155.732 85.5854 154.085 87.1961 152.081 87.1961C150.076 87.1961 148.466 85.5854 148.466 83.5809C148.466 83.5809 148.466 83.5809 148.466 83.5451V71.0169V70.9811V61.5671C148.466 59.5626 150.076 57.916 152.081 57.916C153.262 57.916 154.3 58.4529 154.944 59.312C157.987 57.7012 162.139 57.3433 167.473 59.2404C167.508 59.2404 167.58 59.2404 167.616 59.2762Z" fill="url(#paint2_linear_604_2879)"/>
<path d="M146.514 74.453V83.867C146.514 85.8715 144.903 87.4823 142.898 87.4823C141.574 87.4823 140.428 86.8022 139.784 85.7284C131.014 90.5965 120.025 84.4398 120.025 74.453C120.025 74.3456 120.025 74.274 120.025 74.1667V61.7459C120.025 61.6385 120.025 61.5669 120.025 61.4595C120.025 61.3879 120.025 61.2805 120.025 61.2089V61.1732C120.204 59.3118 121.744 57.8442 123.641 57.8442C125.574 57.8442 127.113 59.3118 127.256 61.1732H127.292V74.453C127.292 75.0257 127.363 75.5984 127.542 76.1354C129.547 82.4352 139.283 80.8961 139.283 74.453V61.4953C139.283 61.4953 139.283 61.4953 139.283 61.4595C139.283 59.455 140.894 57.8442 142.898 57.8442C144.903 57.8442 146.514 59.455 146.514 61.4595C146.514 61.4953 146.514 61.4953 146.514 61.4953V74.453Z" fill="url(#paint3_linear_604_2879)"/>
<path d="M118.041 83.509C118.041 83.5448 118.041 83.6164 118.041 83.6522C117.969 85.5851 116.358 87.1243 114.426 87.1243C113.28 87.1243 112.314 86.6232 111.634 85.8357L91.2663 61.8174V83.509C91.2663 85.5135 89.6198 87.1243 87.6153 87.1243C85.6108 87.1243 84 85.5135 84 83.509V51.938C84 51.9022 84 51.8664 84 51.7948C84 51.7591 84 51.7233 84 51.6875C84.0358 51.6159 84.0358 51.5801 84.0358 51.5085C84.0358 51.4369 84.0358 51.4011 84.0716 51.3295C84.0716 51.2579 84.0716 51.2221 84.1074 51.1505C84.1074 51.079 84.1074 51.0432 84.1432 50.9716C84.1432 50.9358 84.179 50.8642 84.179 50.7926C84.2148 50.7568 84.2148 50.721 84.2506 50.6494C84.2506 50.6136 84.2864 50.542 84.3222 50.4704C84.3222 50.4346 84.3579 50.3989 84.3937 50.3273C84.3937 50.2915 84.4295 50.2199 84.4653 50.1841C84.5011 50.1125 84.5369 50.0767 84.5369 50.0409C84.5727 49.9693 84.6085 49.9335 84.6443 49.8977C84.6801 49.8261 84.7159 49.7903 84.7517 49.7545C84.7875 49.683 84.8233 49.6472 84.8591 49.6114C84.8949 49.5756 84.9307 49.504 84.9665 49.4682C85.0023 49.4324 85.038 49.3966 85.0738 49.3608C85.1454 49.325 85.1812 49.2534 85.217 49.2176C85.2528 49.1818 85.2886 49.146 85.3602 49.1102C85.396 49.0744 85.4318 49.0387 85.5034 49.0029C85.5392 48.9671 85.575 48.9671 85.6108 48.9313C85.6823 48.8955 85.7181 48.8597 85.7897 48.8239C85.8255 48.7881 85.8613 48.7523 85.9329 48.7523C85.9687 48.7165 86.0403 48.6807 86.1119 48.6449C86.1477 48.6449 86.1835 48.6091 86.2193 48.6091C86.2909 48.5733 86.3625 48.5375 86.434 48.5375C86.4698 48.5017 86.5056 48.5017 86.5772 48.4659C86.6488 48.4659 86.7204 48.4301 86.792 48.4301C86.8278 48.3943 86.8636 48.3943 86.8994 48.3943C87.0068 48.3586 87.0783 48.3586 87.1499 48.3586C87.1857 48.3586 87.2215 48.3228 87.2573 48.3228C87.4005 48.3228 87.5079 48.3228 87.6153 48.3228C87.7585 48.3228 87.8658 48.3228 88.009 48.3228C88.8681 48.4301 89.6198 48.7881 90.1925 49.3608C90.2641 49.4324 90.2999 49.504 90.3715 49.5756L90.4073 49.6114L110.774 73.6297V51.938C110.774 49.9335 112.421 48.3228 114.426 48.3228C116.43 48.3228 118.041 49.9335 118.041 51.938V83.509Z" fill="url(#paint4_linear_604_2879)"/>
<path d="M122.408 24.0717C122.408 22.0672 122.195 20.7964 124.2 20.7964C126.204 20.7964 140.45 20.7964 140.45 20.7964C139.269 18.1476 136.907 16.5011 133.685 16.5011C129.784 16.5011 126.383 20.0089 126.383 24.4117C126.383 25.7719 126.634 26.9889 127.063 27.9912C127.493 29.0292 128.101 29.8883 128.889 30.5326C129.426 30.9979 130.034 31.3917 130.786 31.678C131.752 32.0718 132.933 32.3223 134.401 32.3223C135.332 32.3223 136.334 32.1076 137.3 31.7496C138.267 31.3559 139.198 30.819 139.878 30.1747C140.522 29.6019 141.381 29.244 142.312 29.244C144.316 29.244 145.927 30.8906 145.927 32.8951C145.927 33.9689 145.462 34.8996 144.746 35.5797C144.71 35.6155 144.674 35.6513 144.638 35.6513C144.638 35.687 144.603 35.687 144.603 35.687C143.207 36.9041 141.632 37.8347 139.949 38.5148C138.195 39.1949 136.298 39.5887 134.401 39.5887C132.468 39.5887 130.643 39.3023 128.96 38.7296C127.314 38.1927 125.775 37.3694 124.486 36.2956C123.627 35.6155 122.839 34.828 122.195 33.9331C121.3 32.7877 120.62 31.4991 120.119 30.1389C119.439 28.3491 119.117 26.4162 119.117 24.4117C119.117 16.0715 125.739 9.27051 133.685 9.27051C142.312 9.27051 148.433 15.9641 148.433 24.4117C148.433 26.4162 146.786 28.027 144.782 28.027H124.2C122.195 28.027 122.408 26.0762 122.408 24.0717Z" fill="white"/>
<path d="M103.365 22.1928H102.756H103.508C103.472 22.1928 103.437 22.1928 103.401 22.1928C103.365 22.1928 103.365 22.1928 103.365 22.1928ZM112.493 17.4321C121.477 24.3762 116.537 38.8373 105.191 38.8373H87.6153C87.5079 38.8373 87.3647 38.8373 87.2573 38.8373C85.8613 38.6942 84.7159 37.7635 84.2506 36.5107C84.1074 36.1169 84 35.6874 84 35.2221V3.65107C84 3.61527 84 3.61527 84 3.61527C84 1.61076 85.6108 0 87.6153 0C87.6511 0 87.6511 0 87.6511 0H87.6869H103.365C112.242 0 117.54 9.95095 112.6 17.2889C112.564 17.3605 112.528 17.3963 112.493 17.4321ZM105.191 14.9264C105.262 14.9264 105.334 14.9264 105.405 14.9264C105.083 14.9264 104.797 14.9264 104.51 14.9264H105.191ZM105.191 31.6068C108.985 31.6068 111.168 27.3472 109.092 24.2689C107.374 21.7274 104.725 22.2643 103.508 22.1928H96.9935C96.9577 22.1928 96.9219 22.1928 96.8861 22.1928C94.8816 22.1928 93.235 20.582 93.235 18.5775C93.235 18.5775 93.235 18.5775 93.235 18.5417C93.235 16.6804 94.6668 15.1412 96.4924 14.9622C96.6356 14.9622 96.7429 14.9264 96.8861 14.9264H102.792H103.437C108.376 14.8548 108.484 7.48111 103.616 7.26634L91.2663 7.30213V31.6068H105.191Z" fill="white"/>
<path d="M36.6198 42.6188C36.6198 42.6188 55.8013 39.8324 55.8013 56.0591C55.8013 72.2859 36.6198 70.9746 36.6198 70.9746H4V28.0353C4.93703 23.7191 9.99218 14.2996 21.1042 16.2666C35.6793 18.8467 35.2763 40.2126 22.0816 42.6561" stroke="url(#paint5_linear_604_2879)" stroke-width="7" stroke-linecap="round" stroke-linejoin="round"/>
<path fill-rule="evenodd" clip-rule="evenodd" d="M25.5263 47.543H25.5263C25.5263 51.8798 29.0308 55.3982 33.3624 55.4206C29.0308 55.443 25.5263 58.9614 25.5263 63.2983C25.5263 63.2983 25.5263 63.2984 25.5263 63.2985C25.5263 63.2985 25.5263 63.2985 25.5263 63.2985H25.5261V63.2983C25.5261 58.9615 22.0217 55.4432 17.6902 55.4206C22.0217 55.3981 25.5261 51.8798 25.5261 47.543H25.5263Z" fill="white"/>
<defs>
<linearGradient id="paint0_linear_604_2879" x1="14.8555" y1="26.7957" x2="227.452" y2="28.6607" gradientUnits="userSpaceOnUse">
<stop offset="0.15464" stop-color="white"/>
<stop offset="1" stop-color="#CAB7FF"/>
</linearGradient>
<linearGradient id="paint1_linear_604_2879" x1="14.8555" y1="26.7956" x2="227.452" y2="28.6607" gradientUnits="userSpaceOnUse">
<stop offset="0.15464" stop-color="white"/>
<stop offset="1" stop-color="#CAB7FF"/>
</linearGradient>
<linearGradient id="paint2_linear_604_2879" x1="14.8556" y1="26.7955" x2="227.453" y2="28.6605" gradientUnits="userSpaceOnUse">
<stop offset="0.15464" stop-color="white"/>
<stop offset="1" stop-color="#CAB7FF"/>
</linearGradient>
<linearGradient id="paint3_linear_604_2879" x1="14.8555" y1="26.7953" x2="227.452" y2="28.6604" gradientUnits="userSpaceOnUse">
<stop offset="0.15464" stop-color="white"/>
<stop offset="1" stop-color="#CAB7FF"/>
</linearGradient>
<linearGradient id="paint4_linear_604_2879" x1="14.8556" y1="26.7953" x2="227.453" y2="28.6603" gradientUnits="userSpaceOnUse">
<stop offset="0.15464" stop-color="white"/>
<stop offset="1" stop-color="#CAB7FF"/>
</linearGradient>
<linearGradient id="paint5_linear_604_2879" x1="29.9007" y1="16" x2="29.9007" y2="71" gradientUnits="userSpaceOnUse">
<stop stop-color="white"/>
<stop offset="1" stop-color="#D0BFFF"/>
</linearGradient>
</defs>
</svg>
