<svg width="18" height="18" viewBox="0 0 18 18" fill="none" xmlns="http://www.w3.org/2000/svg">
<path fill-rule="evenodd" clip-rule="evenodd" d="M9 0C6.80014 0 4.97407 1.58434 4.63273 3.66092C4.46833 3.67245 4.31196 3.68703 4.1634 3.70548C3.42231 3.79751 2.78177 3.99486 2.23914 4.45597C1.69641 4.91717 1.40357 5.51311 1.20153 6.22281C1.00824 6.90178 0.876953 7.76744 0.716053 8.82838L0.391063 10.971C0.178903 12.3696 0.00765305 13.4986 0.000253054 14.3933C-0.00741295 15.3216 0.157303 16.1319 0.739423 16.7984C1.32138 17.4647 2.10903 17.7451 3.04043 17.8749C3.93846 18 5.09562 18 6.52952 18H11.4705C12.9044 18 14.0615 18 14.9596 17.8749C15.891 17.7451 16.6786 17.4647 17.2606 16.7984C17.8427 16.1319 18.0074 15.3216 17.9997 14.3933C17.9924 13.4986 17.8211 12.3696 17.6089 10.971L17.284 8.82854C17.1231 7.76756 16.9918 6.9018 16.7985 6.22281C16.5964 5.51311 16.3036 4.91717 15.7609 4.45597C15.2182 3.99486 14.5777 3.79751 13.8366 3.70548C13.688 3.68703 13.5317 3.67245 13.3673 3.66092C13.0259 1.58434 11.1999 0 9 0ZM4.35231 5.18925C4.42395 5.18035 4.49824 5.17249 4.57546 5.16555V7.07824C4.57546 7.49209 4.91533 7.82597 5.33256 7.82597C5.7498 7.82597 6.08967 7.49209 6.08967 7.07824V5.11433C6.33792 5.11298 6.60641 5.11289 6.89793 5.11289H11.1021C11.3936 5.11289 11.6621 5.11298 11.9103 5.11433V7.07824C11.9103 7.49209 12.2502 7.82597 12.6674 7.82597C13.0847 7.82597 13.4245 7.49209 13.4245 7.07824V5.16555C13.5018 5.17249 13.576 5.18035 13.6477 5.18925C14.2304 5.26161 14.542 5.39305 14.7732 5.58957C15.0044 5.78599 15.1821 6.07023 15.3408 6.62758C15.5052 7.20525 15.6238 7.97728 15.7939 9.0992L16.1026 11.134C16.3256 12.6047 16.4792 13.6289 16.4856 14.4055C16.4918 15.1609 16.3549 15.5458 16.114 15.8216C15.8729 16.0976 15.5068 16.2884 14.748 16.3941C13.9681 16.5028 12.9182 16.5045 11.4107 16.5045H6.58929C5.08177 16.5045 4.03186 16.5028 3.25201 16.3941C2.49324 16.2884 2.12706 16.0976 1.88599 15.8216C1.64507 15.5458 1.50817 15.1609 1.51441 14.4055C1.52083 13.6289 1.67437 12.6047 1.89744 11.134L2.20607 9.0992C2.37625 7.97728 2.49477 7.20525 2.65922 6.62758C2.81789 6.07023 2.9956 5.78599 3.22675 5.58957C3.45801 5.39305 3.7696 5.26161 4.35231 5.18925ZM6.84748 3.61743C6.61931 3.61743 6.39997 3.61743 6.18925 3.61824C6.52253 2.39599 7.65405 1.49546 9 1.49546C10.3459 1.49546 11.4775 2.39599 11.8107 3.61824C11.6 3.61743 11.3806 3.61743 11.1524 3.61743H6.84748Z" fill="#6C6C6C"/>
<path fill-rule="evenodd" clip-rule="evenodd" d="M8.99997 9C8.62554 9 8.322 9.30354 8.322 9.67797V11.322H6.67797C6.30354 11.322 6 11.6255 6 12C6 12.3744 6.30354 12.678 6.67797 12.678H8.322V14.3219C8.322 14.6965 8.62554 15 8.99997 15C9.37441 15 9.67795 14.6965 9.67795 14.3219V12.678H11.3219C11.6965 12.678 12 12.3744 12 12C12 11.6255 11.6965 11.322 11.3219 11.322H9.67795V9.67797C9.67795 9.30354 9.37441 9 8.99997 9Z" fill="#6C6C6C"/>
</svg>
