<svg width="18" height="18" viewBox="0 0 18 18" fill="none" xmlns="http://www.w3.org/2000/svg">
<path fill-rule="evenodd" clip-rule="evenodd" d="M5.27216 5C5.27216 4.58579 5.60795 4.25 6.02216 4.25H12.0222C12.4364 4.25 12.7722 4.58579 12.7722 5C12.7722 5.41421 12.4364 5.75 12.0222 5.75H6.02216C5.60795 5.75 5.27216 5.41421 5.27216 5ZM6.27216 8C6.27216 7.58579 6.60795 7.25 7.02216 7.25H11.0222C11.4364 7.25 11.7722 7.58579 11.7722 8C11.7722 8.41421 11.4364 8.75 11.0222 8.75H7.02216C6.60795 8.75 6.27216 8.41421 6.27216 8ZM10.8757 4.3551e-07H7.12439C6.05616 -1.55645e-05 5.19029 -2.85581e-05 4.49746 0.0856804C3.77572 0.17496 3.15893 0.36522 2.63131 0.80412C2.10368 1.24303 1.80432 1.81489 1.58515 2.50831C1.37475 3.17396 1.21714 4.02537 1.02269 5.07576L0.289115 9.0382C0.166355 9.7012 0.0978153 10.0714 0.0573353 10.4472C0.0461153 10.5514 0.0365354 10.6558 0.0285954 10.7603C-9.62801e-06 11.1372 -6.65988e-06 11.5137 3.40119e-07 12.1879V12.261C-1.26599e-05 13.3059 -2.26796e-05 14.1483 0.0752553 14.8205C0.153085 15.5154 0.318555 16.1132 0.709345 16.6272C0.899515 16.8773 1.12271 17.1005 1.37282 17.2907C1.88678 17.6814 2.48463 17.8469 3.17954 17.9247C3.8517 18 4.69413 18 5.73892 18H12.2611C13.3059 18 14.1484 18 14.8205 17.9247C15.5154 17.8469 16.1133 17.6814 16.6272 17.2907C16.8773 17.1005 17.1005 16.8773 17.2907 16.6272C17.6815 16.1132 17.847 15.5154 17.9248 14.8205C18.0001 14.1483 18.0001 13.3059 18 12.2611V12.1879C18.0001 11.5136 18.0001 11.1372 17.9714 10.7603C17.9635 10.6558 17.9539 10.5514 17.9427 10.4472C17.9022 10.0714 17.8337 9.7012 17.7109 9.0381L16.9774 5.0758C16.7829 4.02539 16.6253 3.17397 16.4149 2.50831C16.1957 1.81489 15.8964 1.24303 15.3687 0.80412C14.8411 0.36522 14.2243 0.17496 13.5026 0.0856804C12.8098 -2.85581e-05 11.9439 -1.55645e-05 10.8757 4.3551e-07ZM3.52093 1.87356C3.76663 1.66917 4.08988 1.53778 4.66824 1.46624C5.26573 1.39233 6.04532 1.39109 7.16974 1.39109H10.8303C11.9547 1.39109 12.7343 1.39233 13.3318 1.46624C13.9102 1.53778 14.2334 1.66917 14.4791 1.87356C14.7248 2.07795 14.9129 2.37188 15.0885 2.92755C15.2699 3.5016 15.4131 4.26794 15.6178 5.37357L16.3374 9.2605C16.3949 9.5714 16.4384 9.8068 16.472 10H14.3664C14.0576 10 13.7671 9.9999 13.5231 10.0273C13.2513 10.0578 12.9655 10.1282 12.6965 10.3166C12.4275 10.5051 12.2636 10.7496 12.1421 10.9946C12.033 11.2145 11.9338 11.4875 11.8283 11.7777L11.7739 11.9272C11.6524 12.2613 11.5814 12.4534 11.5143 12.5888C11.484 12.6498 11.4635 12.68 11.4526 12.694C11.4475 12.7005 11.4441 12.7039 11.4441 12.7039L11.443 12.7048L11.4419 12.7054C11.4419 12.7054 11.4375 12.7075 11.4296 12.7101C11.4127 12.7156 11.3774 12.7245 11.3097 12.7321C11.1595 12.7489 10.9547 12.75 10.5992 12.75H7.40086C7.04534 12.75 6.8405 12.7489 6.69033 12.7321C6.62265 12.7245 6.58733 12.7156 6.57041 12.7101C6.56665 12.7089 6.56387 12.7078 6.5619 12.7071C6.55976 12.7062 6.55815 12.7054 6.55815 12.7054L6.55701 12.7048L6.556 12.7039C6.556 12.7039 6.5525 12.7005 6.54744 12.694C6.53651 12.68 6.51606 12.6498 6.4858 12.5888C6.41864 12.4534 6.34762 12.2613 6.22612 11.9272L6.17179 11.7778C6.06628 11.4875 5.96705 11.2145 5.85796 10.9946C5.7364 10.7496 5.57256 10.5051 5.30355 10.3166C5.03454 10.1282 4.74875 10.0578 4.47691 10.0273C4.23297 9.9999 3.94249 10 3.63366 10H1.5281C1.56164 9.8068 1.60512 9.5714 1.66269 9.2605L2.38228 5.37357C2.58697 4.26794 2.73011 3.5016 2.91155 2.92755C3.08719 2.37188 3.27522 2.07795 3.52093 1.87356ZM1.39304 11.5C1.39117 11.69 1.39109 11.9203 1.39109 12.2194C1.39109 13.3156 1.39211 14.08 1.4577 14.6656C1.52175 15.2375 1.64001 15.5528 1.8167 15.7852C1.9308 15.9353 2.06471 16.0692 2.21478 16.1833C2.44716 16.36 2.76255 16.4783 3.33437 16.5423C3.92003 16.6079 4.68436 16.6089 5.78057 16.6089H12.2195C13.3157 16.6089 14.08 16.6079 14.6657 16.5423C15.2375 16.4783 15.5529 16.36 15.7853 16.1833C15.9353 16.0692 16.0693 15.9353 16.1834 15.7852C16.36 15.5528 16.4783 15.2375 16.5423 14.6656C16.6079 14.08 16.609 13.3156 16.609 12.2194C16.609 11.9203 16.6089 11.69 16.607 11.5H14.4009C14.0454 11.5 13.8405 11.5011 13.6904 11.5179C13.6227 11.5255 13.5874 11.5345 13.5704 11.5399C13.5626 11.5425 13.5582 11.5446 13.5582 11.5446L13.557 11.5452L13.556 11.5461C13.556 11.5461 13.5525 11.5495 13.5475 11.556C13.5365 11.57 13.5161 11.6002 13.4858 11.6612C13.4187 11.7966 13.3477 11.9887 13.2262 12.3228L13.1718 12.4722C13.0663 12.7625 12.9671 13.0355 12.858 13.2554C12.7364 13.5004 12.5726 13.745 12.3036 13.9334C12.0346 14.1218 11.7488 14.1922 11.477 14.2227C11.233 14.2501 10.9426 14.25 10.6337 14.25H7.36634C7.05754 14.25 6.76702 14.2501 6.5231 14.2227C6.25125 14.1922 5.96547 14.1218 5.69646 13.9334C5.42745 13.745 5.26361 13.5004 5.14205 13.2554C5.03296 13.0355 4.93372 12.7625 4.82822 12.4722L4.77389 12.3228C4.65239 11.9887 4.58137 11.7966 4.51421 11.6612C4.48395 11.6002 4.4635 11.57 4.45257 11.556C4.4475 11.5495 4.44401 11.5461 4.44401 11.5461L4.443 11.5452L4.44186 11.5446C4.44186 11.5446 4.43745 11.5425 4.4296 11.5399C4.41268 11.5345 4.37736 11.5255 4.30968 11.5179C4.15951 11.5011 3.95467 11.5 3.59915 11.5H1.39304Z" fill="#6C6C6C"/>
</svg>
