<svg width="16" height="20" viewBox="0 0 16 20" fill="none" xmlns="http://www.w3.org/2000/svg">
<path fill-rule="evenodd" clip-rule="evenodd" d="M3.29115 4.3038C3.29115 1.83478 5.49571 0 7.99995 0C10.5042 0 12.7087 1.83478 12.7087 4.3038C12.7087 6.77281 10.5042 8.60759 7.99995 8.60759C5.49571 8.60759 3.29115 6.77281 3.29115 4.3038ZM7.99995 1.51899C6.12423 1.51899 4.77814 2.85788 4.77814 4.3038C4.77814 5.74971 6.12423 7.08861 7.99995 7.08861C9.8757 7.08861 11.2218 5.74971 11.2218 4.3038C11.2218 2.85788 9.8757 1.51899 7.99995 1.51899ZM2.93265 11.2085C6.04335 9.24169 9.9566 9.24169 13.0673 11.2085C14.8895 12.3606 16 14.4102 16 16.618V17.1319C16 17.3339 16.0001 17.4949 15.9847 17.6397C15.854 18.8728 14.9125 19.8486 13.7176 19.9842C13.5773 20.0001 13.4215 20 13.2263 20H2.77366C2.57853 20 2.4227 20.0001 2.28242 19.9842C1.08748 19.8486 0.145957 18.8728 0.0152572 17.6397C-9.27644e-05 17.4949 -5.27315e-05 17.3339 7.2685e-06 17.1318V16.618C7.2685e-06 14.4102 1.11054 12.3606 2.93265 11.2085ZM12.2847 12.5274C11.9687 12.3276 11.6429 12.1518 11.3097 12C8.86915 10.8882 6.02971 11.064 3.71529 12.5274C2.33869 13.3978 1.49833 14.9473 1.49833 16.618V17.0903C1.49833 17.3533 1.49946 17.4221 1.50469 17.4715C1.55925 17.9863 1.95169 18.3907 2.44614 18.4468C2.4935 18.4522 2.55969 18.4533 2.81397 18.4533H8.52019H10.4605H13.186C13.4403 18.4533 13.5065 18.4522 13.5539 18.4468C14.0483 18.3907 14.4407 17.9863 14.4953 17.4715C14.5005 17.4221 14.5017 17.3533 14.5017 17.0903V16.618C14.5017 15.2008 13.897 13.8708 12.8732 12.9686C12.6901 12.8072 12.4936 12.6595 12.2847 12.5274Z" fill="#6C6C6C"/>
<path d="M8.52019 18.4533H10.4605L12.8732 12.9686C12.6901 12.8072 12.4936 12.6595 12.2847 12.5274C11.9687 12.3276 11.6429 12.1518 11.3097 12L8.52019 18.4533Z" fill="#6C6C6C"/>
<path d="M10.5 15.0107H7C7 15.0107 5 15.2596 5 16.9995C5 18.7394 7 18.9995 7 18.9995H9" stroke="#6C6C6C" stroke-width="1.7"/>
</svg>
