<svg width="17" height="18" viewBox="0 0 17 18" fill="none" xmlns="http://www.w3.org/2000/svg">
<path d="M13.0864 6.15684C13.0864 4.78916 12.577 3.4775 11.6703 2.51041C10.7637 1.54331 9.53401 1 8.25181 1C6.96961 1 5.73993 1.54331 4.83328 2.51041C3.92662 3.4775 3.41727 4.78916 3.41727 6.15684C3.41727 12.1732 1 13.8921 1 13.8921H15.5036C15.5036 13.8921 13.0864 12.1732 13.0864 6.15684Z" stroke="#555555" stroke-width="1.50869" stroke-linecap="round" stroke-linejoin="round"/>
<path d="M9.64558 16.3096C9.50393 16.5538 9.30064 16.7565 9.05593 16.8974C8.8113 17.0383 8.53396 17.1125 8.25163 17.1125C7.96929 17.1125 7.69195 17.0383 7.44732 16.8974C7.20269 16.7565 6.99932 16.5538 6.85767 16.3096" stroke="#555555" stroke-width="1.50869" stroke-linecap="round" stroke-linejoin="round"/>
</svg>
