<svg width="18" height="18" viewBox="0 0 18 18" fill="none" xmlns="http://www.w3.org/2000/svg">
<path fill-rule="evenodd" clip-rule="evenodd" d="M17.6043 10.9935L17.2803 8.8425C17.1183 7.7715 16.9878 6.8985 16.7943 6.219C16.5918 5.5125 16.3038 4.923 15.7728 4.473C15.2418 4.0185 14.6118 3.825 13.8693 3.735C13.7028 3.7125 13.5273 3.699 13.3428 3.6855C13.0278 1.602 11.2008 0 9.00034 0C6.79984 0 4.97284 1.602 4.65784 3.6855C4.47334 3.699 4.29784 3.7125 4.13134 3.735C3.39334 3.825 2.76334 4.023 2.22784 4.473C1.69684 4.9275 1.40434 5.5125 1.20634 6.219C1.01284 6.8985 0.882342 7.767 0.720342 8.8425L0.396342 10.9935C0.180342 12.4065 0.00934238 13.5405 0.000342379 14.436C-0.00865762 15.363 0.157842 16.1595 0.729342 16.812C1.30084 17.4645 2.07484 17.7435 3.00634 17.874C3.90634 18 5.06734 18 6.51634 18H11.4843C12.9333 18 14.0943 18 14.9943 17.874C15.9258 17.7435 16.6998 17.4645 17.2713 16.812C17.8428 16.1595 18.0048 15.363 18.0003 14.436C17.9913 13.5405 17.8203 12.4065 17.6043 10.9935ZM5.30134 8.064C4.79284 8.064 4.37884 7.6545 4.37884 7.1505C4.37884 6.6465 4.79284 6.237 5.30134 6.237C5.80984 6.237 6.22384 6.6465 6.22384 7.1505C6.22384 7.6545 5.80984 8.064 5.30134 8.064ZM10.7508 12.9015H9.65734L9.66184 14.004C9.66184 14.3685 9.36934 14.661 9.00934 14.6655C8.64484 14.6655 8.35234 14.373 8.34784 14.013V12.9195L7.24534 12.924C6.88084 12.924 6.58834 12.6315 6.58384 12.2715C6.57934 11.9115 6.87634 11.6145 7.23634 11.61H8.32984L8.32534 10.5075C8.32534 10.143 8.61784 9.8505 8.97784 9.846C9.33784 9.8415 9.63484 10.1385 9.63934 10.4985V11.592L10.7418 11.5875C11.1063 11.5875 11.3988 11.88 11.4033 12.24C11.4033 12.6045 11.1108 12.897 10.7508 12.9015ZM11.1603 3.645H6.83134C6.56584 3.645 6.31384 3.645 6.07534 3.645C6.38584 2.34 7.57834 1.3635 9.00034 1.3635C10.4223 1.3635 11.6103 2.3355 11.9253 3.645C11.6823 3.645 11.4303 3.645 11.1648 3.645H11.1603ZM12.6903 8.064C12.1818 8.064 11.7678 7.6545 11.7678 7.1505C11.7678 6.6465 12.1818 6.237 12.6903 6.237C13.1988 6.237 13.6128 6.6465 13.6128 7.1505C13.6128 7.6545 13.1988 8.064 12.6903 8.064Z" fill="#6C6C6C"/>
</svg>
